<svg width="163" height="34" viewBox="0 0 163 34" fill="none" xmlns="http://www.w3.org/2000/svg">
<path d="M11.3594 1.75781C12.5312 1.91406 13.5208 1.99219 14.3281 1.99219C14.7708 1.99219 15.1745 1.97917 15.5391 1.95312C15.9036 1.92708 16.3594 1.88802 16.9062 1.83594C17.375 1.78385 17.9609 1.73177 18.6641 1.67969C19.3672 1.6276 20.1875 1.53646 21.125 1.40625C20.7865 1.66667 20.526 1.96615 20.3438 2.30469C20.1615 2.64323 20.0182 2.96875 19.9141 3.28125C19.8099 3.64583 19.7318 4.02344 19.6797 4.41406C19.6536 4.64844 19.6406 5.13021 19.6406 5.85938C19.6667 6.58854 19.6797 7.47396 19.6797 8.51562C19.7057 9.55729 19.7057 10.7161 19.6797 11.9922C19.6797 13.2682 19.6536 14.5703 19.6016 15.8984C19.5495 17.2005 19.4714 18.5026 19.3672 19.8047C19.263 21.0807 19.1068 22.2656 18.8984 23.3594C18.7161 24.4271 18.4688 25.3646 18.1562 26.1719C17.8698 26.9531 17.5182 27.5 17.1016 27.8125C16.2422 28.4635 15.3047 28.9974 14.2891 29.4141C13.2734 29.8047 12.2708 30.0651 11.2812 30.1953C10.2917 30.3255 9.35417 30.3255 8.46875 30.1953C7.60938 30.0911 6.88021 29.8307 6.28125 29.4141C5.89062 29.1276 5.52604 28.724 5.1875 28.2031C4.84896 27.6823 4.53646 27.1094 4.25 26.4844C3.98958 25.8333 3.74219 25.1693 3.50781 24.4922C3.29948 23.7891 3.11719 23.151 2.96094 22.5781C2.77865 21.9792 2.63542 21.4583 2.53125 21.0156C2.40104 20.5469 2.3099 20.2344 2.25781 20.0781C2.15365 19.8438 1.98438 19.6094 1.75 19.375C1.51562 19.1406 1.26823 18.9323 1.00781 18.75C0.747396 18.5677 0.526042 18.4375 0.34375 18.3594C0.135417 18.2552 0.0182292 18.2292 -0.0078125 18.2812C-0.0078125 18.3333 0.200521 18.3464 0.617188 18.3203C1.00781 18.2682 1.48958 18.2161 2.0625 18.1641C2.63542 18.112 3.23438 18.0729 3.85938 18.0469C4.48438 17.9948 5.00521 17.9818 5.42188 18.0078C5.76042 18.0078 6.20312 18.0208 6.75 18.0469C7.21875 18.0729 7.81771 18.099 8.54688 18.125C9.27604 18.125 10.1745 18.151 11.2422 18.2031C10.5651 18.4115 10.0182 18.6458 9.60156 18.9062C9.21094 19.1406 8.91146 19.362 8.70312 19.5703C8.44271 19.8307 8.26042 20.0911 8.15625 20.3516C8.07812 20.5859 8.01302 21.0677 7.96094 21.7969C7.9349 22.5 7.98698 23.2292 8.11719 23.9844C8.2474 24.7396 8.49479 25.4297 8.85938 26.0547C9.22396 26.6797 9.79688 27.0312 10.5781 27.1094C11.4115 27.1875 12.0885 27.0443 12.6094 26.6797C13.1562 26.2891 13.5859 25.7682 13.8984 25.1172C14.2109 24.4661 14.4453 23.737 14.6016 22.9297C14.7578 22.1224 14.888 21.3281 14.9922 20.5469C15.0703 20.026 15.0964 19.2969 15.0703 18.3594C15.0443 17.4219 14.9792 16.4062 14.875 15.3125C14.7708 14.2188 14.6406 13.0859 14.4844 11.9141C14.3542 10.7422 14.224 9.66146 14.0938 8.67188C13.9635 7.68229 13.8333 6.83594 13.7031 6.13281C13.599 5.42969 13.5339 4.98698 13.5078 4.80469C13.4036 4.46615 13.2604 4.11458 13.0781 3.75C12.9219 3.46354 12.7005 3.13802 12.4141 2.77344C12.1536 2.40885 11.8021 2.07031 11.3594 1.75781ZM22.4922 12.0312C23.1693 12.1615 23.7552 12.2656 24.25 12.3438C24.7708 12.3958 25.2135 12.4479 25.5781 12.5C25.9948 12.5521 26.3594 12.5911 26.6719 12.6172C26.9844 12.6432 27.349 12.6693 27.7656 12.6953C28.4688 12.7214 29.4583 12.7214 30.7344 12.6953C29.9792 12.6432 29.3802 12.8385 28.9375 13.2812C28.5208 13.6979 28.2083 14.1797 28 14.7266C27.7396 15.3776 27.5964 16.1328 27.5703 16.9922C27.5182 18.138 27.5443 19.1797 27.6484 20.1172C27.7786 21.0286 28 21.8099 28.3125 22.4609C28.651 23.0859 29.0938 23.5547 29.6406 23.8672C30.1875 24.1536 30.8906 24.2318 31.75 24.1016C32.6094 23.9714 33.2604 23.6719 33.7031 23.2031C34.1719 22.7083 34.5104 22.1094 34.7188 21.4062C34.9271 20.6771 35.0443 19.8568 35.0703 18.9453C35.1224 18.0339 35.1615 17.0833 35.1875 16.0938C35.1875 15.1042 35.1745 14.401 35.1484 13.9844C35.1484 13.5417 35.1354 13.2552 35.1094 13.125C35.0833 12.9948 35.0443 12.9427 34.9922 12.9688C34.9401 12.9688 34.875 12.9036 34.7969 12.7734C34.7448 12.6693 34.6667 12.5651 34.5625 12.4609C34.4844 12.3568 34.3802 12.2396 34.25 12.1094C34.1198 11.9531 33.9766 11.7969 33.8203 11.6406C34.4974 11.6667 35.0964 11.6927 35.6172 11.7188C36.1641 11.7188 36.6198 11.7318 36.9844 11.7578C37.401 11.7839 37.7656 11.8099 38.0781 11.8359C38.3646 11.862 38.7422 11.901 39.2109 11.9531C39.6016 12.0052 40.1094 12.0573 40.7344 12.1094C41.3594 12.1615 42.1016 12.2396 42.9609 12.3438C42.362 12.474 41.8802 12.6693 41.5156 12.9297C41.151 13.1901 40.8646 13.4505 40.6562 13.7109C40.4219 13.9974 40.2526 14.3099 40.1484 14.6484C40.0703 15.0911 40.0703 15.7682 40.1484 16.6797C40.2005 17.487 40.3307 18.5938 40.5391 20C40.7474 21.4062 41.0729 23.2552 41.5156 25.5469L38.4297 27.3828L37.8047 22.1875C37.0495 23.4635 36.2422 24.4531 35.3828 25.1562C34.5495 25.8333 33.7682 26.3281 33.0391 26.6406C32.1797 27.0052 31.3464 27.2135 30.5391 27.2656C29.4714 27.2656 28.5469 27.2005 27.7656 27.0703C27.0104 26.9141 26.3594 26.7188 25.8125 26.4844C25.2656 26.25 24.8229 25.9896 24.4844 25.7031C24.1719 25.3906 23.9375 25.0781 23.7812 24.7656C23.4167 24.1146 23.2214 23.2812 23.1953 22.2656C23.1693 21.224 23.2083 20.1953 23.3125 19.1797C23.4167 18.138 23.5339 17.1875 23.6641 16.3281C23.7943 15.4688 23.8333 14.8828 23.7812 14.5703C23.7292 14.3359 23.651 14.0755 23.5469 13.7891C23.4427 13.5547 23.3125 13.2943 23.1562 13.0078C23 12.6953 22.7786 12.3698 22.4922 12.0312ZM60.7734 7.69531C60.5391 8.26823 60.3307 8.78906 60.1484 9.25781C59.9922 9.72656 59.849 10.1432 59.7188 10.5078C59.5885 10.9245 59.4714 11.2891 59.3672 11.6016C59.263 11.9661 59.1458 12.3828 59.0156 12.8516C58.8854 13.2682 58.7161 13.7891 58.5078 14.4141C58.3255 15.013 58.1042 15.7292 57.8438 16.5625C57.6354 15.3125 57.2578 14.3229 56.7109 13.5938C56.1641 12.8385 55.6042 12.2526 55.0312 11.8359C54.3542 11.3672 53.625 11.0286 52.8438 10.8203C51.4375 10.5859 50.4219 10.612 49.7969 10.8984C49.1719 11.1849 48.7552 11.5495 48.5469 11.9922C48.4427 12.1745 48.3255 12.4089 48.1953 12.6953C48.0911 12.9557 48 13.2292 47.9219 13.5156C47.8698 13.8021 47.8568 14.0885 47.8828 14.375C47.9089 14.6615 48.026 14.8958 48.2344 15.0781C48.3646 15.2083 48.7031 15.3906 49.25 15.625C49.7969 15.8333 50.4479 16.0807 51.2031 16.3672C51.9844 16.6276 52.8047 16.9141 53.6641 17.2266C54.5495 17.5391 55.3828 17.8516 56.1641 18.1641C56.9453 18.4766 57.6224 18.7891 58.1953 19.1016C58.7682 19.4141 59.1458 19.7005 59.3281 19.9609C59.4844 20.2214 59.6536 20.5729 59.8359 21.0156C60.0443 21.4323 60.1875 21.901 60.2656 22.4219C60.3698 22.9167 60.3958 23.4375 60.3438 23.9844C60.3177 24.5052 60.1745 25.026 59.9141 25.5469C59.6536 26.0677 59.237 26.5495 58.6641 26.9922C58.1172 27.4349 57.375 27.7995 56.4375 28.0859C55.3438 28.4245 54.2891 28.5156 53.2734 28.3594C52.2578 28.2031 51.3203 27.9688 50.4609 27.6562C49.6276 27.3438 48.8984 27.0443 48.2734 26.7578C47.6484 26.4453 47.2057 26.3151 46.9453 26.3672C46.6589 26.4193 46.3333 26.5625 45.9688 26.7969C45.6042 27.0312 45.2526 27.2786 44.9141 27.5391C44.6016 27.7734 44.3281 27.9948 44.0938 28.2031C43.8594 28.3854 43.7422 28.4505 43.7422 28.3984C43.7422 28.3464 43.7812 28.1901 43.8594 27.9297C43.9635 27.6693 44.0677 27.3568 44.1719 26.9922C44.3021 26.6016 44.4193 26.1849 44.5234 25.7422C44.6536 25.2734 44.7448 24.8307 44.7969 24.4141C44.849 24.0755 44.9141 23.6589 44.9922 23.1641C45.0443 22.7214 45.1094 22.1875 45.1875 21.5625C45.2917 20.9115 45.4089 20.1302 45.5391 19.2188C45.6693 19.8958 45.8516 20.4818 46.0859 20.9766C46.3464 21.4714 46.5938 21.901 46.8281 22.2656C47.1146 22.6823 47.388 23.0339 47.6484 23.3203C48.0391 23.6849 48.4948 24.0234 49.0156 24.3359C49.5625 24.6484 50.1094 24.9219 50.6562 25.1562C51.2031 25.3646 51.724 25.4948 52.2188 25.5469C52.7135 25.599 53.1302 25.5469 53.4688 25.3906C53.8073 25.2344 54.0938 24.9479 54.3281 24.5312C54.5885 24.1146 54.7708 23.6589 54.875 23.1641C54.9792 22.6693 55.0182 22.2005 54.9922 21.7578C54.9661 21.2891 54.849 20.9115 54.6406 20.625C54.4844 20.4427 54.1198 20.2083 53.5469 19.9219C53 19.6354 52.3359 19.3229 51.5547 18.9844C50.7995 18.6458 49.9922 18.2943 49.1328 17.9297C48.2995 17.5651 47.5052 17.2005 46.75 16.8359C46.0208 16.4453 45.4089 16.0807 44.9141 15.7422C44.4453 15.3776 44.1849 15.0521 44.1328 14.7656C44.0807 14.349 44.0417 13.8932 44.0156 13.3984C43.9896 12.8776 44.0156 12.3698 44.0938 11.875C44.1979 11.3542 44.3802 10.8594 44.6406 10.3906C44.9271 9.92188 45.3438 9.53125 45.8906 9.21875C46.2552 9.01042 46.737 8.85417 47.3359 8.75C47.9349 8.64583 48.599 8.59375 49.3281 8.59375C50.0573 8.56771 50.8125 8.59375 51.5938 8.67188C52.375 8.72396 53.1172 8.80208 53.8203 8.90625C54.5495 8.98438 55.2005 9.08854 55.7734 9.21875C56.3724 9.34896 56.8281 9.46615 57.1406 9.57031C57.5052 9.70052 57.8958 9.71354 58.3125 9.60938C58.6771 9.53125 59.0677 9.36198 59.4844 9.10156C59.901 8.84115 60.3307 8.3724 60.7734 7.69531ZM61.7109 5.39062C62.4922 5.46875 63.1432 5.53385 63.6641 5.58594C64.2109 5.63802 64.6536 5.67708 64.9922 5.70312C65.3828 5.72917 65.6953 5.74219 65.9297 5.74219C66.1641 5.76823 66.4766 5.76823 66.8672 5.74219C67.2057 5.71615 67.6484 5.6901 68.1953 5.66406C68.7422 5.61198 69.4323 5.53385 70.2656 5.42969C70.0833 5.6901 69.9401 5.92448 69.8359 6.13281C69.7318 6.3151 69.6406 6.48438 69.5625 6.64062L69.3281 7.10938C69.276 7.26562 69.224 7.42188 69.1719 7.57812C69.1198 7.70833 69.0677 7.86458 69.0156 8.04688C68.9896 8.22917 68.9635 8.42448 68.9375 8.63281H74.9531L74.4062 11.7969L68.8984 11.4844C68.7682 12.8125 68.6771 13.8411 68.625 14.5703C68.5729 15.2995 68.5208 15.8333 68.4688 16.1719L68.3906 16.875C68.3125 17.8646 68.2344 18.9453 68.1562 20.1172C68.0781 21.263 68.0521 22.3307 68.0781 23.3203C68.1042 24.3099 68.1953 25.1432 68.3516 25.8203C68.5078 26.4714 68.7812 26.7969 69.1719 26.7969C69.5625 26.7969 69.9271 26.6927 70.2656 26.4844C70.6042 26.276 70.8906 26.0286 71.125 25.7422C71.3854 25.4557 71.5807 25.1693 71.7109 24.8828C71.8411 24.5703 71.9062 24.3359 71.9062 24.1797C71.9062 24.0234 71.8672 23.8411 71.7891 23.6328C71.6589 23.2422 71.4245 22.7474 71.0859 22.1484C71.8411 22.3307 72.5052 22.513 73.0781 22.6953C73.3646 22.7995 73.625 22.9036 73.8594 23.0078C74.1198 23.112 74.4193 23.2292 74.7578 23.3594C75.0443 23.4896 75.4089 23.6458 75.8516 23.8281C76.2943 24.0104 76.8151 24.2318 77.4141 24.4922C76.8411 24.5964 76.4245 24.7656 76.1641 25C76.0078 25.1042 75.8906 25.2214 75.8125 25.3516C75.6302 25.638 75.4219 26.0286 75.1875 26.5234C74.9531 26.9922 74.6016 27.4609 74.1328 27.9297C73.6641 28.3984 73.026 28.8151 72.2188 29.1797C71.4375 29.5443 70.3828 29.7526 69.0547 29.8047C67.6745 29.8568 66.6198 29.6224 65.8906 29.1016C65.1875 28.5807 64.6667 27.9818 64.3281 27.3047C64.0156 26.6016 63.8333 25.9115 63.7812 25.2344C63.7292 24.5573 63.6901 24.1016 63.6641 23.8672C63.638 23.6328 63.638 23.0469 63.6641 22.1094C63.6901 21.1719 63.7292 20.1432 63.7812 19.0234C63.8333 17.8776 63.8854 16.7839 63.9375 15.7422C63.9896 14.6745 64.0156 13.8932 64.0156 13.3984C64.0156 13.138 64.0286 12.8646 64.0547 12.5781C64.0547 12.3438 64.0547 12.0964 64.0547 11.8359C64.0807 11.5495 64.0938 11.276 64.0938 11.0156L58.4297 10.9766L58.1953 8.75L63.8984 8.90625C63.8464 8.61979 63.7812 8.35938 63.7031 8.125C63.651 7.86458 63.599 7.65625 63.5469 7.5C63.4688 7.31771 63.3906 7.16146 63.3125 7.03125C63.2083 6.90104 63.0911 6.75781 62.9609 6.60156C62.8307 6.47135 62.6615 6.30208 62.4531 6.09375C62.2448 5.88542 61.9974 5.65104 61.7109 5.39062ZM87.2578 1.48438C89.0026 1.69271 90.513 1.84896 91.7891 1.95312C93.0651 2.03125 94.1198 2.09635 94.9531 2.14844C95.9167 2.20052 96.724 2.21354 97.375 2.1875C98.0521 2.16146 98.9766 2.09635 100.148 1.99219C101.138 1.91406 102.44 1.8099 104.055 1.67969C105.669 1.52344 107.688 1.3151 110.109 1.05469C110.135 1.65365 110.148 2.23958 110.148 2.8125C110.174 3.35938 110.201 3.84115 110.227 4.25781C110.253 4.7526 110.266 5.20833 110.266 5.625C110.266 6.06771 110.24 6.6276 110.188 7.30469C110.135 7.8776 110.044 8.60677 109.914 9.49219C109.81 10.3516 109.641 11.3802 109.406 12.5781C109.042 11.1719 108.69 10.0391 108.352 9.17969C108.013 8.29427 107.701 7.59115 107.414 7.07031C107.102 6.47135 106.789 6.01562 106.477 5.70312C106.138 5.46875 105.734 5.27344 105.266 5.11719C104.849 4.98698 104.315 4.88281 103.664 4.80469C103.039 4.72656 102.297 4.73958 101.438 4.84375C101.307 8.28125 101.216 11.0677 101.164 13.2031C101.112 15.3385 101.073 17.0052 101.047 18.2031C101.021 19.6354 101.008 20.6641 101.008 21.2891C101.034 22.1745 101.177 23.0469 101.438 23.9062C101.646 24.6354 101.984 25.3906 102.453 26.1719C102.922 26.9531 103.599 27.6432 104.484 28.2422H99.7188C99.276 28.2422 98.7292 28.2682 98.0781 28.3203C97.5312 28.3724 96.8281 28.4245 95.9688 28.4766C95.1354 28.5286 94.1589 28.6198 93.0391 28.75C93.4297 28.0729 93.7422 27.4609 93.9766 26.9141C94.2109 26.3672 94.3932 25.8984 94.5234 25.5078C94.6797 25.0391 94.7969 24.6224 94.875 24.2578C94.901 23.737 94.9661 22.6823 95.0703 21.0938C95.0964 20.4427 95.1224 19.6354 95.1484 18.6719C95.2005 17.7083 95.2526 16.5625 95.3047 15.2344C95.3828 13.9062 95.4479 12.3828 95.5 10.6641C95.5781 8.91927 95.6562 6.95312 95.7344 4.76562C95.2656 4.63542 94.8229 4.64844 94.4062 4.80469C93.9896 4.9349 93.625 5.10417 93.3125 5.3125C92.9479 5.57292 92.5964 5.88542 92.2578 6.25C91.9193 6.69271 91.5417 7.26562 91.125 7.96875C90.7604 8.56771 90.3438 9.36198 89.875 10.3516C89.4062 11.3151 88.8724 12.513 88.2734 13.9453C88.1432 12.4349 88.0521 11.1979 88 10.2344C87.9479 9.24479 87.9089 8.47656 87.8828 7.92969C87.8568 7.27865 87.8438 6.79688 87.8438 6.48438C87.8438 6.19792 87.8177 5.82031 87.7656 5.35156C87.7135 4.96094 87.6484 4.45312 87.5703 3.82812C87.4922 3.17708 87.388 2.39583 87.2578 1.48438ZM112.609 14.1797C112.74 14.0234 112.818 13.737 112.844 13.3203C112.896 12.8776 113 12.3828 113.156 11.8359C113.339 11.2891 113.638 10.7161 114.055 10.1172C114.471 9.51823 115.148 8.95833 116.086 8.4375C116.997 7.91667 117.883 7.60417 118.742 7.5C119.602 7.39583 120.422 7.4349 121.203 7.61719C121.984 7.79948 122.714 8.08594 123.391 8.47656C124.094 8.86719 124.732 9.29688 125.305 9.76562C125.695 10.0781 126.008 10.5339 126.242 11.1328C126.477 11.7057 126.659 12.3568 126.789 13.0859C126.919 13.8151 127.01 14.5833 127.062 15.3906C127.141 16.1719 127.193 16.9401 127.219 17.6953C127.245 18.4245 127.258 19.1016 127.258 19.7266C127.284 20.3255 127.336 20.8203 127.414 21.2109C127.518 21.7839 127.701 22.2786 127.961 22.6953C128.221 23.0859 128.508 23.4245 128.82 23.7109C129.133 23.9714 129.445 24.1797 129.758 24.3359C130.07 24.4922 130.344 24.6094 130.578 24.6875C130.734 24.7656 130.878 24.8177 131.008 24.8438C131.268 24.9479 131.451 24.9479 131.555 24.8438C131.398 25.2083 131.255 25.5208 131.125 25.7812C130.995 26.0417 130.891 26.263 130.812 26.4453C130.708 26.6536 130.617 26.8229 130.539 26.9531C130.461 27.1094 130.37 27.2526 130.266 27.3828C130.188 27.513 130.083 27.6562 129.953 27.8125C129.823 27.9688 129.693 28.138 129.562 28.3203C129.224 28.1901 128.898 28.0339 128.586 27.8516C128.299 27.6693 128.039 27.5 127.805 27.3438C127.518 27.1615 127.258 26.9792 127.023 26.7969C126.789 26.6146 126.568 26.4062 126.359 26.1719C126.177 25.9635 125.982 25.7422 125.773 25.5078C125.591 25.2734 125.435 25.013 125.305 24.7266C125.148 25.0651 124.771 25.5469 124.172 26.1719C123.599 26.7969 122.844 27.3698 121.906 27.8906C120.969 28.3854 119.875 28.737 118.625 28.9453C117.401 29.1536 116.047 29.0104 114.562 28.5156C113.911 28.3073 113.299 28.0078 112.727 27.6172C112.154 27.2005 111.659 26.7057 111.242 26.1328C110.852 25.5599 110.565 24.9089 110.383 24.1797C110.227 23.4245 110.24 22.5911 110.422 21.6797C110.604 20.7682 110.93 20 111.398 19.375C111.867 18.75 112.427 18.2422 113.078 17.8516C113.729 17.4609 114.458 17.1615 115.266 16.9531C116.073 16.7448 116.906 16.6016 117.766 16.5234C118.443 16.4974 119.12 16.5365 119.797 16.6406C120.37 16.7448 120.969 16.9401 121.594 17.2266C122.219 17.487 122.753 17.8906 123.195 18.4375C123.169 17.0573 123.117 15.9635 123.039 15.1562C122.987 14.3229 122.935 13.6849 122.883 13.2422C122.779 12.7214 122.688 12.3568 122.609 12.1484C122.479 11.9661 122.336 11.7578 122.18 11.5234C122.049 11.2891 121.88 11.0807 121.672 10.8984C121.464 10.6901 121.203 10.5208 120.891 10.3906C120.578 10.2604 120.214 10.2083 119.797 10.2344C119.354 10.2604 119.003 10.3776 118.742 10.5859C118.482 10.7943 118.273 11.0417 118.117 11.3281C117.987 11.5885 117.909 11.875 117.883 12.1875C117.857 12.5 117.87 12.7734 117.922 13.0078C117.974 13.1641 118.052 13.3333 118.156 13.5156C118.26 13.6719 118.404 13.8411 118.586 14.0234C118.768 14.2057 119.016 14.362 119.328 14.4922C118.729 14.5703 118.195 14.6354 117.727 14.6875C117.258 14.7135 116.854 14.7526 116.516 14.8047C116.125 14.8568 115.786 14.8958 115.5 14.9219C115.214 14.9479 114.875 15 114.484 15.0781C114.146 15.1302 113.729 15.1953 113.234 15.2734C112.74 15.3516 112.167 15.4557 111.516 15.5859C111.672 15.4036 111.815 15.2344 111.945 15.0781C112.076 14.8958 112.193 14.7396 112.297 14.6094C112.401 14.4531 112.505 14.3099 112.609 14.1797ZM118.469 18.8281C118 18.8542 117.531 18.9714 117.062 19.1797C116.594 19.362 116.177 19.6354 115.812 20C115.448 20.3385 115.135 20.7422 114.875 21.2109C114.641 21.6536 114.523 22.1484 114.523 22.6953C114.523 23.2422 114.654 23.724 114.914 24.1406C115.201 24.5312 115.565 24.8568 116.008 25.1172C116.477 25.3776 116.971 25.5339 117.492 25.5859C118.039 25.638 118.573 25.5859 119.094 25.4297C119.589 25.2474 120.057 24.9609 120.5 24.5703C120.943 24.1536 121.32 23.7109 121.633 23.2422C121.945 22.7474 122.167 22.2656 122.297 21.7969C122.427 21.3021 122.44 20.8984 122.336 20.5859C122.128 19.9089 121.659 19.4401 120.93 19.1797C120.201 18.8932 119.38 18.776 118.469 18.8281ZM132.062 31.0938C132.323 30.7031 132.531 30.3385 132.688 30C132.844 29.6615 132.974 29.375 133.078 29.1406C133.182 28.8542 133.26 28.5938 133.312 28.3594C133.339 28.2031 133.352 27.7474 133.352 26.9922C133.352 26.237 133.326 25.2865 133.273 24.1406C133.247 22.9948 133.208 21.7057 133.156 20.2734C133.13 18.8411 133.078 17.3828 133 15.8984C132.948 14.4141 132.883 12.9688 132.805 11.5625C132.753 10.1562 132.701 8.89323 132.648 7.77344C132.596 6.6276 132.544 5.6901 132.492 4.96094C132.44 4.23177 132.401 3.8151 132.375 3.71094C132.323 3.55469 132.232 3.39844 132.102 3.24219C131.841 2.92969 131.398 2.63021 130.773 2.34375C132.102 2.00521 133.117 1.73177 133.82 1.52344C134.237 1.41927 134.602 1.3151 134.914 1.21094C135.201 1.10677 135.487 1.0026 135.773 0.898438C136.008 0.794271 136.268 0.677083 136.555 0.546875C136.841 0.390625 137.102 0.221354 137.336 0.0390625C137.206 0.794271 137.102 1.52344 137.023 2.22656C136.945 2.92969 136.88 3.58073 136.828 4.17969C136.776 4.85677 136.75 5.50781 136.75 6.13281C136.62 7.40885 136.542 8.80208 136.516 10.3125C136.516 11.7969 136.529 13.3073 136.555 14.8438C136.581 16.3802 136.633 17.8776 136.711 19.3359C136.789 20.7943 136.867 22.1224 136.945 23.3203C137.049 24.4922 137.141 25.4948 137.219 26.3281C137.323 27.1354 137.401 27.6562 137.453 27.8906C137.557 28.2812 137.661 28.6589 137.766 29.0234C137.87 29.3359 137.987 29.6615 138.117 30C138.247 30.3646 138.404 30.651 138.586 30.8594H134.797C134.458 30.8594 134.133 30.8724 133.82 30.8984C133.534 30.9245 133.234 30.9505 132.922 30.9766C132.609 31.0026 132.323 31.0417 132.062 31.0938ZM139.602 1.83594C139.888 1.96615 140.227 2.05729 140.617 2.10938C141.034 2.16146 141.424 2.1875 141.789 2.1875C142.232 2.1875 142.688 2.17448 143.156 2.14844C143.625 2.1224 144.198 2.07031 144.875 1.99219C145.422 1.9401 146.099 1.875 146.906 1.79688C147.714 1.71875 148.612 1.61458 149.602 1.48438C149.237 1.66667 148.924 1.86198 148.664 2.07031C148.404 2.27865 148.182 2.48698 148 2.69531C147.792 2.92969 147.622 3.16406 147.492 3.39844C147.31 3.71094 147.062 4.25781 146.75 5.03906C146.464 5.79427 146.164 6.64062 145.852 7.57812C145.565 8.51562 145.305 9.46615 145.07 10.4297C144.862 11.3932 144.745 12.2135 144.719 12.8906C144.693 13.4635 144.667 14.1146 144.641 14.8438C144.615 15.4688 144.589 16.237 144.562 17.1484C144.536 18.0599 144.51 19.1016 144.484 20.2734C146.359 18.9193 147.805 17.8385 148.82 17.0312C149.836 16.1979 150.578 15.5599 151.047 15.1172C151.594 14.6224 151.919 14.2708 152.023 14.0625C151.997 13.9062 151.932 13.737 151.828 13.5547C151.698 13.3984 151.516 13.2161 151.281 13.0078C151.047 12.7995 150.695 12.5651 150.227 12.3047C150.904 12.3828 151.49 12.4349 151.984 12.4609C152.505 12.487 152.948 12.513 153.312 12.5391C153.729 12.5651 154.094 12.5651 154.406 12.5391C154.745 12.5391 155.161 12.526 155.656 12.5C156.516 12.474 157.844 12.4349 159.641 12.3828C157.896 13.2943 156.516 14.0755 155.5 14.7266C154.927 15.0911 154.419 15.4297 153.977 15.7422C153.534 16.0807 153.078 16.4323 152.609 16.7969C152.193 17.1094 151.711 17.474 151.164 17.8906C150.643 18.3073 150.122 18.75 149.602 19.2188C150.513 20.7031 151.307 21.9271 151.984 22.8906C152.688 23.8542 153.273 24.6354 153.742 25.2344C154.289 25.9375 154.771 26.4974 155.188 26.9141C155.604 27.3047 156.151 27.7474 156.828 28.2422C157.401 28.6849 158.143 29.2057 159.055 29.8047C159.992 30.3776 161.125 31.0417 162.453 31.7969C161.776 31.6667 161.125 31.5755 160.5 31.5234C159.875 31.4974 159.341 31.4974 158.898 31.5234C158.352 31.5495 157.857 31.6016 157.414 31.6797C156.945 31.7839 156.424 31.9141 155.852 32.0703C155.357 32.2005 154.771 32.3698 154.094 32.5781C153.443 32.8125 152.727 33.112 151.945 33.4766C152.44 33.112 152.805 32.7604 153.039 32.4219C153.299 32.1094 153.482 31.849 153.586 31.6406C153.69 31.3802 153.729 31.1589 153.703 30.9766C153.573 30.7161 153.273 30.1823 152.805 29.375C152.362 28.6979 151.711 27.7083 150.852 26.4062C149.992 25.1042 148.768 23.3333 147.18 21.0938C147.102 21.1198 146.971 21.1979 146.789 21.3281C146.633 21.4583 146.398 21.6406 146.086 21.875C145.773 22.0833 145.357 22.3958 144.836 22.8125L145.891 29.6484C145.656 29.7526 145.396 29.8438 145.109 29.9219C144.849 30 144.602 30.0651 144.367 30.1172C144.081 30.1953 143.794 30.2474 143.508 30.2734C143.221 30.2995 142.883 30.3516 142.492 30.4297C142.154 30.4818 141.75 30.5469 141.281 30.625C140.812 30.7292 140.279 30.8464 139.68 30.9766C140.018 30.7422 140.292 30.4688 140.5 30.1562C140.708 29.8698 140.878 29.5964 141.008 29.3359C141.138 29.0495 141.255 28.75 141.359 28.4375C141.411 28.1771 141.464 27.5 141.516 26.4062C141.594 25.3125 141.659 24.0104 141.711 22.5C141.763 20.9635 141.802 19.3229 141.828 17.5781C141.88 15.8333 141.906 14.1927 141.906 12.6562C141.906 11.0938 141.893 9.73958 141.867 8.59375C141.841 7.42188 141.789 6.66667 141.711 6.32812C141.581 5.91146 141.424 5.46875 141.242 5C141.086 4.58333 140.865 4.11458 140.578 3.59375C140.318 3.04688 139.992 2.46094 139.602 1.83594Z" fill="#3B5BD9"/>
</svg>
