<svg width="234" height="132" viewBox="0 0 234 132" fill="none" xmlns="http://www.w3.org/2000/svg">
<path d="M0 0H234V132H0V0Z" fill="white"/>
<path d="M38.3594 53.7578C39.5312 53.9141 40.5208 53.9922 41.3281 53.9922C41.7708 53.9922 42.1745 53.9792 42.5391 53.9531C42.9036 53.9271 43.3594 53.888 43.9062 53.8359C44.375 53.7839 44.9609 53.7318 45.6641 53.6797C46.3672 53.6276 47.1875 53.5365 48.125 53.4062C47.7865 53.6667 47.526 53.9661 47.3438 54.3047C47.1615 54.6432 47.0182 54.9688 46.9141 55.2812C46.8099 55.6458 46.7318 56.0234 46.6797 56.4141C46.6536 56.6484 46.6406 57.1302 46.6406 57.8594C46.6667 58.5885 46.6797 59.474 46.6797 60.5156C46.7057 61.5573 46.7057 62.7161 46.6797 63.9922C46.6797 65.2682 46.6536 66.5703 46.6016 67.8984C46.5495 69.2005 46.4714 70.5026 46.3672 71.8047C46.263 73.0807 46.1068 74.2656 45.8984 75.3594C45.7161 76.4271 45.4688 77.3646 45.1562 78.1719C44.8698 78.9531 44.5182 79.5 44.1016 79.8125C43.2422 80.4635 42.3047 80.9974 41.2891 81.4141C40.2734 81.8047 39.2708 82.0651 38.2812 82.1953C37.2917 82.3255 36.3542 82.3255 35.4688 82.1953C34.6094 82.0911 33.8802 81.8307 33.2812 81.4141C32.8906 81.1276 32.526 80.724 32.1875 80.2031C31.849 79.6823 31.5365 79.1094 31.25 78.4844C30.9896 77.8333 30.7422 77.1693 30.5078 76.4922C30.2995 75.7891 30.1172 75.151 29.9609 74.5781C29.7786 73.9792 29.6354 73.4583 29.5312 73.0156C29.401 72.5469 29.3099 72.2344 29.2578 72.0781C29.1536 71.8438 28.9844 71.6094 28.75 71.375C28.5156 71.1406 28.2682 70.9323 28.0078 70.75C27.7474 70.5677 27.526 70.4375 27.3438 70.3594C27.1354 70.2552 27.0182 70.2292 26.9922 70.2812C26.9922 70.3333 27.2005 70.3464 27.6172 70.3203C28.0078 70.2682 28.4896 70.2161 29.0625 70.1641C29.6354 70.112 30.2344 70.0729 30.8594 70.0469C31.4844 69.9948 32.0052 69.9818 32.4219 70.0078C32.7604 70.0078 33.2031 70.0208 33.75 70.0469C34.2188 70.0729 34.8177 70.099 35.5469 70.125C36.276 70.125 37.1745 70.151 38.2422 70.2031C37.5651 70.4115 37.0182 70.6458 36.6016 70.9062C36.2109 71.1406 35.9115 71.362 35.7031 71.5703C35.4427 71.8307 35.2604 72.0911 35.1562 72.3516C35.0781 72.5859 35.013 73.0677 34.9609 73.7969C34.9349 74.5 34.987 75.2292 35.1172 75.9844C35.2474 76.7396 35.4948 77.4297 35.8594 78.0547C36.224 78.6797 36.7969 79.0312 37.5781 79.1094C38.4115 79.1875 39.0885 79.0443 39.6094 78.6797C40.1562 78.2891 40.5859 77.7682 40.8984 77.1172C41.2109 76.4661 41.4453 75.737 41.6016 74.9297C41.7578 74.1224 41.888 73.3281 41.9922 72.5469C42.0703 72.026 42.0964 71.2969 42.0703 70.3594C42.0443 69.4219 41.9792 68.4062 41.875 67.3125C41.7708 66.2188 41.6406 65.0859 41.4844 63.9141C41.3542 62.7422 41.224 61.6615 41.0938 60.6719C40.9635 59.6823 40.8333 58.8359 40.7031 58.1328C40.599 57.4297 40.5339 56.987 40.5078 56.8047C40.4036 56.4661 40.2604 56.1146 40.0781 55.75C39.9219 55.4635 39.7005 55.138 39.4141 54.7734C39.1536 54.4089 38.8021 54.0703 38.3594 53.7578ZM49.4922 64.0312C50.1693 64.1615 50.7552 64.2656 51.25 64.3438C51.7708 64.3958 52.2135 64.4479 52.5781 64.5C52.9948 64.5521 53.3594 64.5911 53.6719 64.6172C53.9844 64.6432 54.349 64.6693 54.7656 64.6953C55.4688 64.7214 56.4583 64.7214 57.7344 64.6953C56.9792 64.6432 56.3802 64.8385 55.9375 65.2812C55.5208 65.6979 55.2083 66.1797 55 66.7266C54.7396 67.3776 54.5964 68.1328 54.5703 68.9922C54.5182 70.138 54.5443 71.1797 54.6484 72.1172C54.7786 73.0286 55 73.8099 55.3125 74.4609C55.651 75.0859 56.0938 75.5547 56.6406 75.8672C57.1875 76.1536 57.8906 76.2318 58.75 76.1016C59.6094 75.9714 60.2604 75.6719 60.7031 75.2031C61.1719 74.7083 61.5104 74.1094 61.7188 73.4062C61.9271 72.6771 62.0443 71.8568 62.0703 70.9453C62.1224 70.0339 62.1615 69.0833 62.1875 68.0938C62.1875 67.1042 62.1745 66.401 62.1484 65.9844C62.1484 65.5417 62.1354 65.2552 62.1094 65.125C62.0833 64.9948 62.0443 64.9427 61.9922 64.9688C61.9401 64.9688 61.875 64.9036 61.7969 64.7734C61.7448 64.6693 61.6667 64.5651 61.5625 64.4609C61.4844 64.3568 61.3802 64.2396 61.25 64.1094C61.1198 63.9531 60.9766 63.7969 60.8203 63.6406C61.4974 63.6667 62.0964 63.6927 62.6172 63.7188C63.1641 63.7188 63.6198 63.7318 63.9844 63.7578C64.401 63.7839 64.7656 63.8099 65.0781 63.8359C65.3646 63.862 65.7422 63.901 66.2109 63.9531C66.6016 64.0052 67.1094 64.0573 67.7344 64.1094C68.3594 64.1615 69.1016 64.2396 69.9609 64.3438C69.362 64.474 68.8802 64.6693 68.5156 64.9297C68.151 65.1901 67.8646 65.4505 67.6562 65.7109C67.4219 65.9974 67.2526 66.3099 67.1484 66.6484C67.0703 67.0911 67.0703 67.7682 67.1484 68.6797C67.2005 69.487 67.3307 70.5938 67.5391 72C67.7474 73.4062 68.0729 75.2552 68.5156 77.5469L65.4297 79.3828L64.8047 74.1875C64.0495 75.4635 63.2422 76.4531 62.3828 77.1562C61.5495 77.8333 60.7682 78.3281 60.0391 78.6406C59.1797 79.0052 58.3464 79.2135 57.5391 79.2656C56.4714 79.2656 55.5469 79.2005 54.7656 79.0703C54.0104 78.9141 53.3594 78.7188 52.8125 78.4844C52.2656 78.25 51.8229 77.9896 51.4844 77.7031C51.1719 77.3906 50.9375 77.0781 50.7812 76.7656C50.4167 76.1146 50.2214 75.2812 50.1953 74.2656C50.1693 73.224 50.2083 72.1953 50.3125 71.1797C50.4167 70.138 50.5339 69.1875 50.6641 68.3281C50.7943 67.4688 50.8333 66.8828 50.7812 66.5703C50.7292 66.3359 50.651 66.0755 50.5469 65.7891C50.4427 65.5547 50.3125 65.2943 50.1562 65.0078C50 64.6953 49.7786 64.3698 49.4922 64.0312ZM87.7734 59.6953C87.5391 60.2682 87.3307 60.7891 87.1484 61.2578C86.9922 61.7266 86.849 62.1432 86.7188 62.5078C86.5885 62.9245 86.4714 63.2891 86.3672 63.6016C86.263 63.9661 86.1458 64.3828 86.0156 64.8516C85.8854 65.2682 85.7161 65.7891 85.5078 66.4141C85.3255 67.013 85.1042 67.7292 84.8438 68.5625C84.6354 67.3125 84.2578 66.3229 83.7109 65.5938C83.1641 64.8385 82.6042 64.2526 82.0312 63.8359C81.3542 63.3672 80.625 63.0286 79.8438 62.8203C78.4375 62.5859 77.4219 62.612 76.7969 62.8984C76.1719 63.1849 75.7552 63.5495 75.5469 63.9922C75.4427 64.1745 75.3255 64.4089 75.1953 64.6953C75.0911 64.9557 75 65.2292 74.9219 65.5156C74.8698 65.8021 74.8568 66.0885 74.8828 66.375C74.9089 66.6615 75.026 66.8958 75.2344 67.0781C75.3646 67.2083 75.7031 67.3906 76.25 67.625C76.7969 67.8333 77.4479 68.0807 78.2031 68.3672C78.9844 68.6276 79.8047 68.9141 80.6641 69.2266C81.5495 69.5391 82.3828 69.8516 83.1641 70.1641C83.9453 70.4766 84.6224 70.7891 85.1953 71.1016C85.7682 71.4141 86.1458 71.7005 86.3281 71.9609C86.4844 72.2214 86.6536 72.5729 86.8359 73.0156C87.0443 73.4323 87.1875 73.901 87.2656 74.4219C87.3698 74.9167 87.3958 75.4375 87.3438 75.9844C87.3177 76.5052 87.1745 77.026 86.9141 77.5469C86.6536 78.0677 86.237 78.5495 85.6641 78.9922C85.1172 79.4349 84.375 79.7995 83.4375 80.0859C82.3438 80.4245 81.2891 80.5156 80.2734 80.3594C79.2578 80.2031 78.3203 79.9688 77.4609 79.6562C76.6276 79.3438 75.8984 79.0443 75.2734 78.7578C74.6484 78.4453 74.2057 78.3151 73.9453 78.3672C73.6589 78.4193 73.3333 78.5625 72.9688 78.7969C72.6042 79.0312 72.2526 79.2786 71.9141 79.5391C71.6016 79.7734 71.3281 79.9948 71.0938 80.2031C70.8594 80.3854 70.7422 80.4505 70.7422 80.3984C70.7422 80.3464 70.7812 80.1901 70.8594 79.9297C70.9635 79.6693 71.0677 79.3568 71.1719 78.9922C71.3021 78.6016 71.4193 78.1849 71.5234 77.7422C71.6536 77.2734 71.7448 76.8307 71.7969 76.4141C71.849 76.0755 71.9141 75.6589 71.9922 75.1641C72.0443 74.7214 72.1094 74.1875 72.1875 73.5625C72.2917 72.9115 72.4089 72.1302 72.5391 71.2188C72.6693 71.8958 72.8516 72.4818 73.0859 72.9766C73.3464 73.4714 73.5938 73.901 73.8281 74.2656C74.1146 74.6823 74.388 75.0339 74.6484 75.3203C75.0391 75.6849 75.4948 76.0234 76.0156 76.3359C76.5625 76.6484 77.1094 76.9219 77.6562 77.1562C78.2031 77.3646 78.724 77.4948 79.2188 77.5469C79.7135 77.599 80.1302 77.5469 80.4688 77.3906C80.8073 77.2344 81.0938 76.9479 81.3281 76.5312C81.5885 76.1146 81.7708 75.6589 81.875 75.1641C81.9792 74.6693 82.0182 74.2005 81.9922 73.7578C81.9661 73.2891 81.849 72.9115 81.6406 72.625C81.4844 72.4427 81.1198 72.2083 80.5469 71.9219C80 71.6354 79.3359 71.3229 78.5547 70.9844C77.7995 70.6458 76.9922 70.2943 76.1328 69.9297C75.2995 69.5651 74.5052 69.2005 73.75 68.8359C73.0208 68.4453 72.4089 68.0807 71.9141 67.7422C71.4453 67.3776 71.1849 67.0521 71.1328 66.7656C71.0807 66.349 71.0417 65.8932 71.0156 65.3984C70.9896 64.8776 71.0156 64.3698 71.0938 63.875C71.1979 63.3542 71.3802 62.8594 71.6406 62.3906C71.9271 61.9219 72.3438 61.5312 72.8906 61.2188C73.2552 61.0104 73.737 60.8542 74.3359 60.75C74.9349 60.6458 75.599 60.5938 76.3281 60.5938C77.0573 60.5677 77.8125 60.5938 78.5938 60.6719C79.375 60.724 80.1172 60.8021 80.8203 60.9062C81.5495 60.9844 82.2005 61.0885 82.7734 61.2188C83.3724 61.349 83.8281 61.4661 84.1406 61.5703C84.5052 61.7005 84.8958 61.7135 85.3125 61.6094C85.6771 61.5312 86.0677 61.362 86.4844 61.1016C86.901 60.8411 87.3307 60.3724 87.7734 59.6953ZM88.7109 57.3906C89.4922 57.4688 90.1432 57.5339 90.6641 57.5859C91.2109 57.638 91.6536 57.6771 91.9922 57.7031C92.3828 57.7292 92.6953 57.7422 92.9297 57.7422C93.1641 57.7682 93.4766 57.7682 93.8672 57.7422C94.2057 57.7161 94.6484 57.6901 95.1953 57.6641C95.7422 57.612 96.4323 57.5339 97.2656 57.4297C97.0833 57.6901 96.9401 57.9245 96.8359 58.1328C96.7318 58.3151 96.6406 58.4844 96.5625 58.6406L96.3281 59.1094C96.276 59.2656 96.224 59.4219 96.1719 59.5781C96.1198 59.7083 96.0677 59.8646 96.0156 60.0469C95.9896 60.2292 95.9635 60.4245 95.9375 60.6328H101.953L101.406 63.7969L95.8984 63.4844C95.7682 64.8125 95.6771 65.8411 95.625 66.5703C95.5729 67.2995 95.5208 67.8333 95.4688 68.1719L95.3906 68.875C95.3125 69.8646 95.2344 70.9453 95.1562 72.1172C95.0781 73.263 95.0521 74.3307 95.0781 75.3203C95.1042 76.3099 95.1953 77.1432 95.3516 77.8203C95.5078 78.4714 95.7812 78.7969 96.1719 78.7969C96.5625 78.7969 96.9271 78.6927 97.2656 78.4844C97.6042 78.276 97.8906 78.0286 98.125 77.7422C98.3854 77.4557 98.5807 77.1693 98.7109 76.8828C98.8411 76.5703 98.9062 76.3359 98.9062 76.1797C98.9062 76.0234 98.8672 75.8411 98.7891 75.6328C98.6589 75.2422 98.4245 74.7474 98.0859 74.1484C98.8411 74.3307 99.5052 74.513 100.078 74.6953C100.365 74.7995 100.625 74.9036 100.859 75.0078C101.12 75.112 101.419 75.2292 101.758 75.3594C102.044 75.4896 102.409 75.6458 102.852 75.8281C103.294 76.0104 103.815 76.2318 104.414 76.4922C103.841 76.5964 103.424 76.7656 103.164 77C103.008 77.1042 102.891 77.2214 102.812 77.3516C102.63 77.638 102.422 78.0286 102.188 78.5234C101.953 78.9922 101.602 79.4609 101.133 79.9297C100.664 80.3984 100.026 80.8151 99.2188 81.1797C98.4375 81.5443 97.3828 81.7526 96.0547 81.8047C94.6745 81.8568 93.6198 81.6224 92.8906 81.1016C92.1875 80.5807 91.6667 79.9818 91.3281 79.3047C91.0156 78.6016 90.8333 77.9115 90.7812 77.2344C90.7292 76.5573 90.6901 76.1016 90.6641 75.8672C90.638 75.6328 90.638 75.0469 90.6641 74.1094C90.6901 73.1719 90.7292 72.1432 90.7812 71.0234C90.8333 69.8776 90.8854 68.7839 90.9375 67.7422C90.9896 66.6745 91.0156 65.8932 91.0156 65.3984C91.0156 65.138 91.0286 64.8646 91.0547 64.5781C91.0547 64.3438 91.0547 64.0964 91.0547 63.8359C91.0807 63.5495 91.0938 63.276 91.0938 63.0156L85.4297 62.9766L85.1953 60.75L90.8984 60.9062C90.8464 60.6198 90.7812 60.3594 90.7031 60.125C90.651 59.8646 90.599 59.6562 90.5469 59.5C90.4688 59.3177 90.3906 59.1615 90.3125 59.0312C90.2083 58.901 90.0911 58.7578 89.9609 58.6016C89.8307 58.4714 89.6615 58.3021 89.4531 58.0938C89.2448 57.8854 88.9974 57.651 88.7109 57.3906ZM114.258 53.4844C116.003 53.6927 117.513 53.849 118.789 53.9531C120.065 54.0312 121.12 54.0964 121.953 54.1484C122.917 54.2005 123.724 54.2135 124.375 54.1875C125.052 54.1615 125.977 54.0964 127.148 53.9922C128.138 53.9141 129.44 53.8099 131.055 53.6797C132.669 53.5234 134.688 53.3151 137.109 53.0547C137.135 53.6536 137.148 54.2396 137.148 54.8125C137.174 55.3594 137.201 55.8411 137.227 56.2578C137.253 56.7526 137.266 57.2083 137.266 57.625C137.266 58.0677 137.24 58.6276 137.188 59.3047C137.135 59.8776 137.044 60.6068 136.914 61.4922C136.81 62.3516 136.641 63.3802 136.406 64.5781C136.042 63.1719 135.69 62.0391 135.352 61.1797C135.013 60.2943 134.701 59.5911 134.414 59.0703C134.102 58.4714 133.789 58.0156 133.477 57.7031C133.138 57.4688 132.734 57.2734 132.266 57.1172C131.849 56.987 131.315 56.8828 130.664 56.8047C130.039 56.7266 129.297 56.7396 128.438 56.8438C128.307 60.2812 128.216 63.0677 128.164 65.2031C128.112 67.3385 128.073 69.0052 128.047 70.2031C128.021 71.6354 128.008 72.6641 128.008 73.2891C128.034 74.1745 128.177 75.0469 128.438 75.9062C128.646 76.6354 128.984 77.3906 129.453 78.1719C129.922 78.9531 130.599 79.6432 131.484 80.2422H126.719C126.276 80.2422 125.729 80.2682 125.078 80.3203C124.531 80.3724 123.828 80.4245 122.969 80.4766C122.135 80.5286 121.159 80.6198 120.039 80.75C120.43 80.0729 120.742 79.4609 120.977 78.9141C121.211 78.3672 121.393 77.8984 121.523 77.5078C121.68 77.0391 121.797 76.6224 121.875 76.2578C121.901 75.737 121.966 74.6823 122.07 73.0938C122.096 72.4427 122.122 71.6354 122.148 70.6719C122.201 69.7083 122.253 68.5625 122.305 67.2344C122.383 65.9062 122.448 64.3828 122.5 62.6641C122.578 60.9193 122.656 58.9531 122.734 56.7656C122.266 56.6354 121.823 56.6484 121.406 56.8047C120.99 56.9349 120.625 57.1042 120.312 57.3125C119.948 57.5729 119.596 57.8854 119.258 58.25C118.919 58.6927 118.542 59.2656 118.125 59.9688C117.76 60.5677 117.344 61.362 116.875 62.3516C116.406 63.3151 115.872 64.513 115.273 65.9453C115.143 64.4349 115.052 63.1979 115 62.2344C114.948 61.2448 114.909 60.4766 114.883 59.9297C114.857 59.2786 114.844 58.7969 114.844 58.4844C114.844 58.1979 114.818 57.8203 114.766 57.3516C114.714 56.9609 114.648 56.4531 114.57 55.8281C114.492 55.1771 114.388 54.3958 114.258 53.4844ZM139.609 66.1797C139.74 66.0234 139.818 65.737 139.844 65.3203C139.896 64.8776 140 64.3828 140.156 63.8359C140.339 63.2891 140.638 62.7161 141.055 62.1172C141.471 61.5182 142.148 60.9583 143.086 60.4375C143.997 59.9167 144.883 59.6042 145.742 59.5C146.602 59.3958 147.422 59.4349 148.203 59.6172C148.984 59.7995 149.714 60.0859 150.391 60.4766C151.094 60.8672 151.732 61.2969 152.305 61.7656C152.695 62.0781 153.008 62.5339 153.242 63.1328C153.477 63.7057 153.659 64.3568 153.789 65.0859C153.919 65.8151 154.01 66.5833 154.062 67.3906C154.141 68.1719 154.193 68.9401 154.219 69.6953C154.245 70.4245 154.258 71.1016 154.258 71.7266C154.284 72.3255 154.336 72.8203 154.414 73.2109C154.518 73.7839 154.701 74.2786 154.961 74.6953C155.221 75.0859 155.508 75.4245 155.82 75.7109C156.133 75.9714 156.445 76.1797 156.758 76.3359C157.07 76.4922 157.344 76.6094 157.578 76.6875C157.734 76.7656 157.878 76.8177 158.008 76.8438C158.268 76.9479 158.451 76.9479 158.555 76.8438C158.398 77.2083 158.255 77.5208 158.125 77.7812C157.995 78.0417 157.891 78.263 157.812 78.4453C157.708 78.6536 157.617 78.8229 157.539 78.9531C157.461 79.1094 157.37 79.2526 157.266 79.3828C157.188 79.513 157.083 79.6562 156.953 79.8125C156.823 79.9688 156.693 80.138 156.562 80.3203C156.224 80.1901 155.898 80.0339 155.586 79.8516C155.299 79.6693 155.039 79.5 154.805 79.3438C154.518 79.1615 154.258 78.9792 154.023 78.7969C153.789 78.6146 153.568 78.4062 153.359 78.1719C153.177 77.9635 152.982 77.7422 152.773 77.5078C152.591 77.2734 152.435 77.013 152.305 76.7266C152.148 77.0651 151.771 77.5469 151.172 78.1719C150.599 78.7969 149.844 79.3698 148.906 79.8906C147.969 80.3854 146.875 80.737 145.625 80.9453C144.401 81.1536 143.047 81.0104 141.562 80.5156C140.911 80.3073 140.299 80.0078 139.727 79.6172C139.154 79.2005 138.659 78.7057 138.242 78.1328C137.852 77.5599 137.565 76.9089 137.383 76.1797C137.227 75.4245 137.24 74.5911 137.422 73.6797C137.604 72.7682 137.93 72 138.398 71.375C138.867 70.75 139.427 70.2422 140.078 69.8516C140.729 69.4609 141.458 69.1615 142.266 68.9531C143.073 68.7448 143.906 68.6016 144.766 68.5234C145.443 68.4974 146.12 68.5365 146.797 68.6406C147.37 68.7448 147.969 68.9401 148.594 69.2266C149.219 69.487 149.753 69.8906 150.195 70.4375C150.169 69.0573 150.117 67.9635 150.039 67.1562C149.987 66.3229 149.935 65.6849 149.883 65.2422C149.779 64.7214 149.688 64.3568 149.609 64.1484C149.479 63.9661 149.336 63.7578 149.18 63.5234C149.049 63.2891 148.88 63.0807 148.672 62.8984C148.464 62.6901 148.203 62.5208 147.891 62.3906C147.578 62.2604 147.214 62.2083 146.797 62.2344C146.354 62.2604 146.003 62.3776 145.742 62.5859C145.482 62.7943 145.273 63.0417 145.117 63.3281C144.987 63.5885 144.909 63.875 144.883 64.1875C144.857 64.5 144.87 64.7734 144.922 65.0078C144.974 65.1641 145.052 65.3333 145.156 65.5156C145.26 65.6719 145.404 65.8411 145.586 66.0234C145.768 66.2057 146.016 66.362 146.328 66.4922C145.729 66.5703 145.195 66.6354 144.727 66.6875C144.258 66.7135 143.854 66.7526 143.516 66.8047C143.125 66.8568 142.786 66.8958 142.5 66.9219C142.214 66.9479 141.875 67 141.484 67.0781C141.146 67.1302 140.729 67.1953 140.234 67.2734C139.74 67.3516 139.167 67.4557 138.516 67.5859C138.672 67.4036 138.815 67.2344 138.945 67.0781C139.076 66.8958 139.193 66.7396 139.297 66.6094C139.401 66.4531 139.505 66.3099 139.609 66.1797ZM145.469 70.8281C145 70.8542 144.531 70.9714 144.062 71.1797C143.594 71.362 143.177 71.6354 142.812 72C142.448 72.3385 142.135 72.7422 141.875 73.2109C141.641 73.6536 141.523 74.1484 141.523 74.6953C141.523 75.2422 141.654 75.724 141.914 76.1406C142.201 76.5312 142.565 76.8568 143.008 77.1172C143.477 77.3776 143.971 77.5339 144.492 77.5859C145.039 77.638 145.573 77.5859 146.094 77.4297C146.589 77.2474 147.057 76.9609 147.5 76.5703C147.943 76.1536 148.32 75.7109 148.633 75.2422C148.945 74.7474 149.167 74.2656 149.297 73.7969C149.427 73.3021 149.44 72.8984 149.336 72.5859C149.128 71.9089 148.659 71.4401 147.93 71.1797C147.201 70.8932 146.38 70.776 145.469 70.8281ZM159.062 83.0938C159.323 82.7031 159.531 82.3385 159.688 82C159.844 81.6615 159.974 81.375 160.078 81.1406C160.182 80.8542 160.26 80.5938 160.312 80.3594C160.339 80.2031 160.352 79.7474 160.352 78.9922C160.352 78.237 160.326 77.2865 160.273 76.1406C160.247 74.9948 160.208 73.7057 160.156 72.2734C160.13 70.8411 160.078 69.3828 160 67.8984C159.948 66.4141 159.883 64.9688 159.805 63.5625C159.753 62.1562 159.701 60.8932 159.648 59.7734C159.596 58.6276 159.544 57.6901 159.492 56.9609C159.44 56.2318 159.401 55.8151 159.375 55.7109C159.323 55.5547 159.232 55.3984 159.102 55.2422C158.841 54.9297 158.398 54.6302 157.773 54.3438C159.102 54.0052 160.117 53.7318 160.82 53.5234C161.237 53.4193 161.602 53.3151 161.914 53.2109C162.201 53.1068 162.487 53.0026 162.773 52.8984C163.008 52.7943 163.268 52.6771 163.555 52.5469C163.841 52.3906 164.102 52.2214 164.336 52.0391C164.206 52.7943 164.102 53.5234 164.023 54.2266C163.945 54.9297 163.88 55.5807 163.828 56.1797C163.776 56.8568 163.75 57.5078 163.75 58.1328C163.62 59.4089 163.542 60.8021 163.516 62.3125C163.516 63.7969 163.529 65.3073 163.555 66.8438C163.581 68.3802 163.633 69.8776 163.711 71.3359C163.789 72.7943 163.867 74.1224 163.945 75.3203C164.049 76.4922 164.141 77.4948 164.219 78.3281C164.323 79.1354 164.401 79.6562 164.453 79.8906C164.557 80.2812 164.661 80.6589 164.766 81.0234C164.87 81.3359 164.987 81.6615 165.117 82C165.247 82.3646 165.404 82.651 165.586 82.8594H161.797C161.458 82.8594 161.133 82.8724 160.82 82.8984C160.534 82.9245 160.234 82.9505 159.922 82.9766C159.609 83.0026 159.323 83.0417 159.062 83.0938ZM166.602 53.8359C166.888 53.9661 167.227 54.0573 167.617 54.1094C168.034 54.1615 168.424 54.1875 168.789 54.1875C169.232 54.1875 169.688 54.1745 170.156 54.1484C170.625 54.1224 171.198 54.0703 171.875 53.9922C172.422 53.9401 173.099 53.875 173.906 53.7969C174.714 53.7188 175.612 53.6146 176.602 53.4844C176.237 53.6667 175.924 53.862 175.664 54.0703C175.404 54.2786 175.182 54.487 175 54.6953C174.792 54.9297 174.622 55.1641 174.492 55.3984C174.31 55.7109 174.062 56.2578 173.75 57.0391C173.464 57.7943 173.164 58.6406 172.852 59.5781C172.565 60.5156 172.305 61.4661 172.07 62.4297C171.862 63.3932 171.745 64.2135 171.719 64.8906C171.693 65.4635 171.667 66.1146 171.641 66.8438C171.615 67.4688 171.589 68.237 171.562 69.1484C171.536 70.0599 171.51 71.1016 171.484 72.2734C173.359 70.9193 174.805 69.8385 175.82 69.0312C176.836 68.1979 177.578 67.5599 178.047 67.1172C178.594 66.6224 178.919 66.2708 179.023 66.0625C178.997 65.9062 178.932 65.737 178.828 65.5547C178.698 65.3984 178.516 65.2161 178.281 65.0078C178.047 64.7995 177.695 64.5651 177.227 64.3047C177.904 64.3828 178.49 64.4349 178.984 64.4609C179.505 64.487 179.948 64.513 180.312 64.5391C180.729 64.5651 181.094 64.5651 181.406 64.5391C181.745 64.5391 182.161 64.526 182.656 64.5C183.516 64.474 184.844 64.4349 186.641 64.3828C184.896 65.2943 183.516 66.0755 182.5 66.7266C181.927 67.0911 181.419 67.4297 180.977 67.7422C180.534 68.0807 180.078 68.4323 179.609 68.7969C179.193 69.1094 178.711 69.474 178.164 69.8906C177.643 70.3073 177.122 70.75 176.602 71.2188C177.513 72.7031 178.307 73.9271 178.984 74.8906C179.688 75.8542 180.273 76.6354 180.742 77.2344C181.289 77.9375 181.771 78.4974 182.188 78.9141C182.604 79.3047 183.151 79.7474 183.828 80.2422C184.401 80.6849 185.143 81.2057 186.055 81.8047C186.992 82.3776 188.125 83.0417 189.453 83.7969C188.776 83.6667 188.125 83.5755 187.5 83.5234C186.875 83.4974 186.341 83.4974 185.898 83.5234C185.352 83.5495 184.857 83.6016 184.414 83.6797C183.945 83.7839 183.424 83.9141 182.852 84.0703C182.357 84.2005 181.771 84.3698 181.094 84.5781C180.443 84.8125 179.727 85.112 178.945 85.4766C179.44 85.112 179.805 84.7604 180.039 84.4219C180.299 84.1094 180.482 83.849 180.586 83.6406C180.69 83.3802 180.729 83.1589 180.703 82.9766C180.573 82.7161 180.273 82.1823 179.805 81.375C179.362 80.6979 178.711 79.7083 177.852 78.4062C176.992 77.1042 175.768 75.3333 174.18 73.0938C174.102 73.1198 173.971 73.1979 173.789 73.3281C173.633 73.4583 173.398 73.6406 173.086 73.875C172.773 74.0833 172.357 74.3958 171.836 74.8125L172.891 81.6484C172.656 81.7526 172.396 81.8438 172.109 81.9219C171.849 82 171.602 82.0651 171.367 82.1172C171.081 82.1953 170.794 82.2474 170.508 82.2734C170.221 82.2995 169.883 82.3516 169.492 82.4297C169.154 82.4818 168.75 82.5469 168.281 82.625C167.812 82.7292 167.279 82.8464 166.68 82.9766C167.018 82.7422 167.292 82.4688 167.5 82.1562C167.708 81.8698 167.878 81.5964 168.008 81.3359C168.138 81.0495 168.255 80.75 168.359 80.4375C168.411 80.1771 168.464 79.5 168.516 78.4062C168.594 77.3125 168.659 76.0104 168.711 74.5C168.763 72.9635 168.802 71.3229 168.828 69.5781C168.88 67.8333 168.906 66.1927 168.906 64.6562C168.906 63.0938 168.893 61.7396 168.867 60.5938C168.841 59.4219 168.789 58.6667 168.711 58.3281C168.581 57.9115 168.424 57.4688 168.242 57C168.086 56.5833 167.865 56.1146 167.578 55.5938C167.318 55.0469 166.992 54.4609 166.602 53.8359Z" fill="#3B5BD9"/>
</svg>
