<svg width="348" height="259" viewBox="0 0 348 259" fill="none" xmlns="http://www.w3.org/2000/svg">
<path d="M347.673 227.607H0.125V227.781H347.673V227.607Z" fill="#EBEBEB"/>
<path d="M312.85 238.794H302.492V238.968H312.85V238.794Z" fill="#EBEBEB"/>
<path d="M230.355 240.681H224.312V240.855H230.355V240.681Z" fill="#EBEBEB"/>
<path d="M299.557 232.341H275.791V232.515H299.557V232.341Z" fill="#EBEBEB"/>
<path d="M76.3276 235.927H46.3047V236.101H76.3276V235.927Z" fill="#EBEBEB"/>
<path d="M93.3433 235.927H82.5156V236.101H93.3433V235.927Z" fill="#EBEBEB"/>
<path d="M177.203 233.594H112.09V233.768H177.203V233.594Z" fill="#EBEBEB"/>
<path d="M164.871 196.606H30.6475C29.5955 196.605 28.5869 196.187 27.8431 195.443C27.0992 194.699 26.6808 193.69 26.6797 192.638V3.9664C26.6812 2.91466 27.0997 1.90644 27.8436 1.16288C28.5874 0.419317 29.5957 0.00111309 30.6475 0H164.871C165.923 0.00148412 166.931 0.41985 167.674 1.16337C168.418 1.9069 168.836 2.9149 168.838 3.9664V192.636C168.837 193.688 168.419 194.697 167.676 195.441C166.932 196.186 165.923 196.605 164.871 196.606ZM30.6489 0.173917C29.6455 0.176877 28.684 0.576802 27.9744 1.28634C27.2649 1.99588 26.865 2.95736 26.862 3.9608V192.636C26.865 193.639 27.2649 194.601 27.9744 195.31C28.684 196.02 29.6455 196.42 30.6489 196.423H164.873C165.876 196.42 166.838 196.02 167.547 195.31C168.257 194.601 168.657 193.639 168.66 192.636V3.9664C168.657 2.96297 168.257 2.00148 167.547 1.29195C166.838 0.582409 165.876 0.182489 164.873 0.179529L30.6489 0.173917Z" fill="#EBEBEB"/>
<path d="M315.219 196.606H180.996C179.944 196.605 178.936 196.186 178.192 195.442C177.449 194.699 177.03 193.69 177.029 192.638V3.9664C177.03 2.91479 177.449 1.90657 178.192 1.16297C178.936 0.419363 179.944 0.0011138 180.996 0H315.219C316.271 0.00111309 317.28 0.419317 318.023 1.16288C318.767 1.90644 319.186 2.91466 319.187 3.9664V192.636C319.187 193.688 318.769 194.697 318.025 195.442C317.281 196.186 316.272 196.605 315.219 196.606ZM180.996 0.173917C179.992 0.176877 179.031 0.576802 178.321 1.28634C177.612 1.99588 177.212 2.95736 177.209 3.9608V192.636C177.212 193.639 177.612 194.601 178.321 195.31C179.031 196.02 179.992 196.42 180.996 196.423H315.219C316.224 196.421 317.187 196.022 317.898 195.313C318.609 194.603 319.01 193.64 319.013 192.636V3.9664C319.01 2.96176 318.609 1.99922 317.898 1.28948C317.187 0.579743 316.224 0.180638 315.219 0.179529L180.996 0.173917Z" fill="#EBEBEB"/>
<path d="M149.206 227.604H162.15V138.722H149.206V227.604Z" fill="#E6E6E6"/>
<path d="M153.764 227.604H149.207V210.718H158.541L153.764 227.604Z" fill="#F0F0F0"/>
<path d="M286.087 227.604H299.031V138.722H286.087V227.604Z" fill="#E6E6E6"/>
<path d="M149.208 222.994L290.064 222.994V138.722H149.208V222.994Z" fill="#F0F0F0"/>
<path d="M285.511 227.604H290.068V210.718H280.729L285.511 227.604Z" fill="#F0F0F0"/>
<path d="M243.625 145.699V215.411H285.38V145.699H243.625Z" fill="#E6E6E6"/>
<path d="M260.372 148.151H268.633C272.129 148.186 275.513 146.915 278.12 144.585H250.887C253.494 146.914 256.877 148.186 260.372 148.151Z" fill="#F0F0F0"/>
<path d="M198.756 145.699V215.411H240.511V145.699H198.756Z" fill="#E6E6E6"/>
<path d="M215.083 148.151H223.344C226.839 148.186 230.222 146.914 232.829 144.585H205.596C208.203 146.915 211.586 148.186 215.083 148.151Z" fill="#F0F0F0"/>
<path d="M153.891 145.699V215.411H195.646V145.699H153.891Z" fill="#E6E6E6"/>
<path d="M170.217 148.151H178.478C181.974 148.186 185.358 146.915 187.965 144.585H160.73C163.338 146.915 166.721 148.186 170.217 148.151Z" fill="#F0F0F0"/>
<path d="M48.7695 227.604H137.088L137.088 29.0711H48.7695L48.7695 227.604Z" fill="#F0F0F0"/>
<path d="M48.7682 227.604H135.223L135.223 29.0711H48.7682L48.7682 227.604Z" fill="#F5F5F5"/>
<path d="M129.955 223.1V33.5767L54.0366 33.5767L54.0366 223.1H129.955Z" fill="#F0F0F0"/>
<path d="M122.495 68.8239C122.495 66.1058 121.959 63.4144 120.919 60.9033C119.879 58.3922 118.355 56.1105 116.433 54.1886C114.511 52.2667 112.229 50.7421 109.718 49.702C107.207 48.6618 104.515 48.1265 101.797 48.1265H82.1954C76.7062 48.1265 71.4417 50.3071 67.5602 54.1886C63.6787 58.0701 61.498 63.3346 61.498 68.8239H122.495Z" fill="#FAFAFA"/>
<path d="M122.494 211.32V166.043H61.4974V211.32H122.494Z" fill="#F5F5F5"/>
<path d="M122.495 81.5903H95.5898V160.202H122.495V81.5903Z" fill="#F5F5F5"/>
<path d="M88.4031 81.5903H61.498V160.202H88.4031V81.5903Z" fill="#F5F5F5"/>
<path d="M71.2549 120.542H60.2351C59.782 120.541 59.3478 120.36 59.0274 120.04C58.707 119.72 58.5265 119.285 58.5254 118.832C58.5269 118.379 58.7075 117.945 59.0278 117.625C59.3481 117.305 59.7821 117.124 60.2351 117.123H71.2549C71.7079 117.124 72.1419 117.305 72.4622 117.625C72.7825 117.945 72.9631 118.379 72.9646 118.832C72.9635 119.285 72.783 119.72 72.4626 120.04C72.1422 120.36 71.708 120.541 71.2549 120.542Z" fill="#E0E0E0"/>
<path d="M55.4023 223.1L55.4023 33.5767H54.0363L54.0363 223.1H55.4023Z" fill="#F0F0F0"/>
<path d="M192.951 116.932L286.611 116.932V29.071L192.951 29.071V116.932Z" fill="#E6E6E6"/>
<path d="M190.589 116.932L284.25 116.932V29.071L190.589 29.071V116.932Z" fill="#F5F5F5"/>
<path d="M185.122 122.018L286.611 122.018V116.932L185.122 116.932V122.018Z" fill="#E6E6E6"/>
<path d="M182.464 122.018L278.727 122.018V116.932L182.464 116.932V122.018Z" fill="#F5F5F5"/>
<path d="M280.012 112.363V33.6421L194.827 33.6421V112.363H280.012Z" fill="white"/>
<path d="M239.779 112.363V33.6421H235.057V112.363H239.779Z" fill="#F5F5F5"/>
<path d="M196.613 112.363V33.6421H194.828V112.363H196.613Z" fill="#E6E6E6"/>
<path d="M241.564 112.363V33.6421H239.779V112.363H241.564Z" fill="#E6E6E6"/>
<path d="M205.541 119.262C203.819 101.414 202.62 72.4532 203.551 62.7672C203.567 62.6007 203.619 62.4396 203.702 62.2945C203.785 62.1495 203.898 62.0237 204.034 61.9257C204.214 61.7939 204.427 61.7153 204.65 61.699C204.872 61.6827 205.095 61.7292 205.292 61.8333C205.49 61.9374 205.654 62.0949 205.766 62.2878C205.878 62.4807 205.934 62.7012 205.927 62.9243C205.763 67.7238 205.574 79.7198 206.596 100.414C207.105 110.716 207.839 117.771 207.335 119.259L205.541 119.262Z" fill="#E6E6E6"/>
<path d="M199.119 78.1266C194.21 72.6805 184.198 68.8081 173.99 68.8277C169.983 68.8361 186.182 75.163 192.924 82.1519C198.312 87.9556 202.747 94.5758 206.065 101.767C204.763 91.1002 204.024 83.5699 199.119 78.1266Z" fill="#E6E6E6"/>
<path d="M208.843 79.7853C212.91 74.1134 222.317 69.7515 232.49 69.2578C236.483 69.0642 221.289 76.1822 215.619 83.4782C211.095 89.5763 207.656 96.4086 205.454 103.675C205.157 92.9973 204.77 85.4586 208.843 79.7853Z" fill="#E6E6E6"/>
<path d="M198.901 58.2358C194.749 53.6242 186.266 50.3451 177.622 50.3619C174.229 50.3619 187.946 55.728 193.65 61.6398C198.213 66.5541 201.969 72.1598 204.778 78.2487C203.681 69.2247 203.052 62.8474 198.901 58.2358Z" fill="#E6E6E6"/>
<path d="M207.133 65.057C210.581 60.2533 218.544 56.5604 227.157 56.1424C230.538 55.9783 217.673 62.0051 212.87 68.1833C209.039 73.3496 206.127 79.1382 204.263 85.2944C204.013 76.2452 203.684 69.858 207.133 65.057Z" fill="#E6E6E6"/>
<path d="M206.234 138.722C203.646 138.722 201.155 137.732 199.273 135.955C197.391 134.179 196.26 131.749 196.112 129.165L195.217 113.649H217.251L216.356 129.165C216.207 131.749 215.076 134.179 213.194 135.955C211.312 137.732 208.822 138.722 206.234 138.722Z" fill="#E6E6E6"/>
<path d="M218.677 117.176H193.795L193.082 110.725H219.395L218.677 117.176Z" fill="#E6E6E6"/>
<path d="M173.899 259C248.332 259 308.671 255.476 308.671 251.129C308.671 246.782 248.332 243.258 173.899 243.258C99.4665 243.258 39.127 246.782 39.127 251.129C39.127 255.476 99.4665 259 173.899 259Z" fill="#F5F5F5"/>
<path d="M176.62 243.606L170.816 244.26L168.676 231.098L174.48 230.445L176.62 243.606Z" fill="#FFC3BD"/>
<path d="M202.604 244.876H196.808L195.365 231.455H201.161L202.604 244.876Z" fill="#FFC3BD"/>
<path d="M196.332 244.201H203.396C203.511 244.201 203.623 244.24 203.713 244.312C203.802 244.384 203.865 244.484 203.89 244.596L205.034 249.748C205.061 249.873 205.059 250.003 205.029 250.128C204.999 250.253 204.94 250.369 204.859 250.468C204.777 250.567 204.674 250.647 204.558 250.7C204.441 250.754 204.314 250.781 204.186 250.779C201.912 250.739 200.259 250.606 197.392 250.606C195.63 250.606 190.318 250.788 187.886 250.788C185.501 250.788 185.135 248.383 186.131 248.166C190.597 247.184 193.961 245.842 195.388 244.557C195.647 244.325 195.984 244.198 196.332 244.201Z" fill="#263238"/>
<path d="M170.72 243.266L177.009 242.554C177.123 242.54 177.238 242.566 177.336 242.628C177.433 242.689 177.507 242.782 177.544 242.89L179.263 247.879C179.306 248 179.321 248.129 179.307 248.256C179.293 248.384 179.25 248.506 179.181 248.615C179.112 248.723 179.02 248.814 178.91 248.881C178.801 248.948 178.678 248.989 178.55 249.001C176.278 249.22 172.985 249.458 170.135 249.782C166.801 250.161 166.246 251.053 162.313 250.962C159.928 250.906 159.331 248.486 160.331 248.297C164.887 247.412 165.767 246.723 169.387 243.882C169.766 243.557 170.227 243.344 170.72 243.266Z" fill="#263238"/>
<path d="M175.838 74.5841C173.892 76.1914 171.976 77.5883 169.994 79.0189C168.012 80.4495 165.988 81.7777 163.906 83.0667C161.823 84.3556 159.685 85.5913 157.444 86.7133C155.153 87.9003 152.767 88.8958 150.312 89.6895C149.663 89.8971 149.03 90.0682 148.301 90.2505C147.588 90.4051 146.867 90.5208 146.141 90.597C144.835 90.7372 143.607 90.8003 142.382 90.8564C139.942 90.9686 137.547 90.9658 135.156 90.949C130.373 90.8915 125.631 90.6615 120.868 90.2407L120.797 85.8928C125.474 85.2911 130.173 84.7708 134.822 84.2476C137.146 83.9952 139.465 83.7119 141.73 83.4159C142.852 83.263 143.974 83.0835 145.009 82.8914C145.454 82.8128 145.894 82.7093 146.327 82.5814C146.736 82.4412 147.236 82.2813 147.699 82.0947C149.687 81.2877 151.616 80.3439 153.473 79.27C155.396 78.1662 157.321 76.981 159.211 75.7215C161.102 74.4621 162.984 73.1577 164.849 71.8267C166.715 70.4957 168.579 69.0861 170.329 67.7593L175.838 74.5841Z" fill="#FFC3BD"/>
<path d="M181.506 69.6299C180.673 75.1082 169.138 83.4885 169.138 83.4885L160.863 73.2176C164.488 69.349 168.332 65.6912 172.375 62.2623C176.099 59.2188 182.412 63.6691 181.506 69.6299Z" fill="#D2E4FF"/>
<path d="M122.393 86.351L119.103 84.0088L118.742 91.4086C119.24 91.4099 119.73 91.2894 120.17 91.0577C120.61 90.8259 120.986 90.4899 121.267 90.079L122.393 86.351Z" fill="#FFC3BD"/>
<path d="M116.13 81.8545L115.457 89.1071L118.745 91.4086L119.105 84.0088L116.13 81.8545Z" fill="#FFC3BD"/>
<path opacity="0.2" d="M168.678 231.103L169.78 237.887L175.585 237.233L174.483 230.449L168.678 231.103Z" fill="black"/>
<path opacity="0.2" d="M201.163 231.455H195.365L196.111 238.372H201.91L201.163 231.455Z" fill="black"/>
<path d="M201.246 62.4374C201.678 62.5342 202.086 62.7163 202.446 62.9731C202.806 63.2299 203.111 63.5562 203.343 63.9327C203.576 64.3092 203.73 64.7283 203.798 65.1655C203.866 65.6026 203.846 66.0489 203.738 66.4781C202.481 71.6977 201.533 76.987 200.9 82.3185C200.351 86.8066 200.023 91.0942 199.818 94.9807C199.337 104.09 199.538 111.034 199.266 113.388C194.734 113.074 177.657 111.886 168.345 111.235C165.202 86.6285 168.885 70.9256 170.954 64.5454C171.271 63.5512 171.863 62.6675 172.663 61.9971C173.462 61.3266 174.436 60.8971 175.47 60.7585C176.657 60.6028 178.076 60.4527 179.574 60.3644C180.098 60.3307 180.63 60.3125 181.171 60.3013C185.567 60.3533 189.957 60.6586 194.317 61.2157C195.145 61.3139 195.981 61.4359 196.794 61.5664C198.42 61.8385 199.965 62.1512 201.246 62.4374Z" fill="#00629D"/>
<path d="M194.048 46.3306C192.926 50.5017 191.554 58.1933 194.317 61.2228C187.15 66.0434 182.575 72.8303 181.255 71.3562C180.564 70.5848 180.264 61.6576 181.173 60.3056C185.968 59.5089 186.09 56.0011 185.498 52.6574L194.048 46.3306Z" fill="#FFC3BD"/>
<path d="M193.761 59.4932C193.761 59.4932 182.082 64.6615 180.533 76.2185C183.751 72.4934 190.857 68.44 190.857 68.44L187.723 67.5396C189.716 66.783 191.78 66.2276 193.884 65.8818C193.536 64.2857 195.39 61.1019 195.39 61.1019L193.761 59.4932Z" fill="#D2E4FF"/>
<path d="M183.227 59.3066C183.227 59.3066 184.784 65.907 180.538 76.2186C179.701 72.6195 178.553 69.0999 177.107 65.6994L179.967 66.4779C179.967 66.4779 179.827 65.1469 177.511 63.3768C178.476 61.9753 179.68 60.7538 181.067 59.7681L183.227 59.3066Z" fill="#D2E4FF"/>
<path opacity="0.2" d="M190.564 48.9121L185.504 52.6541C185.654 53.4328 185.735 54.2231 185.747 55.016C187.57 54.8757 190.179 53.0763 190.503 51.2039C190.662 50.45 190.682 49.6735 190.564 48.9121Z" fill="black"/>
<path d="M179.207 34.2515C176.381 34.3735 174.821 39.246 177.69 43.2587C180.558 47.2714 183.015 34.0874 179.207 34.2515Z" fill="#263238"/>
<path d="M193.146 38.5389C193.481 44.2809 193.969 47.6232 191.442 50.8953C187.641 55.8168 180.292 54.0524 178.248 48.5264C176.41 43.553 176.17 34.9988 181.474 32.0605C182.641 31.4063 183.956 31.0615 185.293 31.0586C186.631 31.0558 187.947 31.3951 189.117 32.0442C190.287 32.6934 191.271 33.6309 191.976 34.7677C192.681 35.9044 193.084 37.2026 193.146 38.5389Z" fill="#FFC3BD"/>
<path d="M193.989 42.9516C192.453 42.0515 191.112 40.8549 190.044 39.4316C188.976 38.0083 188.201 36.3867 187.765 34.6611C186.082 35.0594 177.694 38.9192 175.114 34.6611C172.535 30.403 175.781 27.905 180.607 30.5264C178.472 26.7592 180.413 24.9162 187.12 24.7535C193.827 24.5908 192.925 28.4787 192.925 28.4787C192.925 28.4787 198.003 26.2683 199.798 30.1617C201.878 34.6359 198.04 42.2755 193.989 42.9516Z" fill="#263238"/>
<path d="M191.779 27.4511C191.841 27.4511 194.319 28.0472 197.175 25.1733C196.663 27.625 192.228 29.2576 192.228 29.2576L191.779 27.4511Z" fill="#263238"/>
<path d="M195.111 35.8501C192.437 34.9258 189.198 38.888 190.395 43.6721C191.591 48.4562 198.715 37.0956 195.111 35.8501Z" fill="#263238"/>
<path d="M196.625 43.3151C196.38 44.741 195.58 46.0119 194.4 46.8495C192.828 47.9463 191.412 46.6924 191.315 44.8775C191.233 43.2449 191.952 40.7063 193.785 40.3318C194.187 40.2567 194.602 40.2832 194.991 40.4091C195.381 40.5349 195.732 40.7561 196.015 41.0525C196.297 41.3489 196.5 41.7112 196.607 42.1063C196.714 42.5014 196.72 42.9169 196.625 43.3151Z" fill="#FFC3BD"/>
<path d="M177.06 176.528C178.452 159.576 188.668 112.651 188.668 112.651L168.34 111.233C168.34 111.233 160.501 157.813 159.901 175.491C159.275 193.872 166.668 234.722 166.668 234.722L176.417 233.613C176.417 233.613 175.661 193.549 177.06 176.528Z" fill="#00629D"/>
<path opacity="0.5" d="M177.06 176.528C178.452 159.576 188.668 112.651 188.668 112.651L168.34 111.233C168.34 111.233 160.501 157.813 159.901 175.491C159.275 193.872 166.668 234.722 166.668 234.722L176.417 233.613C176.417 233.613 175.661 193.549 177.06 176.528Z" fill="#D2E4FF"/>
<path opacity="0.2" d="M181.01 128.544C176.912 133.784 176.839 152.187 178.424 165.783C179.934 155.975 182.314 143.519 184.4 133.136L181.01 128.544Z" fill="black"/>
<path d="M179.309 112C179.309 112 181.502 161.615 183.95 178.417C186.628 196.817 193.432 237.032 193.432 237.032H204.047C204.047 237.032 202.301 199.155 200.899 181.078C199.305 160.487 199.261 113.391 199.261 113.391L179.309 112Z" fill="#00629D"/>
<path opacity="0.5" d="M179.309 112C179.309 112 181.502 161.615 183.95 178.417C186.628 196.817 193.432 237.032 193.432 237.032H204.047C204.047 237.032 202.301 199.155 200.899 181.078C199.305 160.487 199.261 113.391 199.261 113.391L179.309 112Z" fill="#D2E4FF"/>
<path d="M192.156 237.258H204.654V233.524L190.684 233.282L192.156 237.258Z" fill="#00629D"/>
<path d="M166.243 235.822L177.862 234.505L177.441 230.75L164.43 232.025L166.243 235.822Z" fill="#00629D"/>
<path d="M184.689 41.1714C184.746 41.6356 184.549 42.0409 184.241 42.0774C183.932 42.1139 183.646 41.7674 183.591 41.3032C183.537 40.839 183.731 40.4336 184.04 40.3972C184.349 40.3607 184.635 40.7071 184.689 41.1714Z" fill="#263238"/>
<path d="M179.445 41.8012C179.501 42.2655 179.305 42.6708 178.996 42.7073C178.688 42.7437 178.402 42.3973 178.345 41.9331C178.289 41.4688 178.486 41.0635 178.794 41.027C179.103 40.9905 179.389 41.3426 179.445 41.8012Z" fill="#263238"/>
<path d="M181.141 41.8325C180.759 43.3174 180.173 44.7427 179.402 46.0682C179.746 46.2567 180.128 46.3679 180.519 46.3938C180.911 46.4197 181.303 46.3598 181.669 46.2183L181.141 41.8325Z" fill="#ED847E"/>
<path d="M186.117 39.2792C186.068 39.2939 186.016 39.295 185.967 39.2824C185.917 39.2698 185.872 39.244 185.837 39.2077C185.605 38.9526 185.316 38.7561 184.993 38.6342C184.671 38.5123 184.324 38.4685 183.981 38.5064C183.91 38.5185 183.836 38.5024 183.776 38.4616C183.717 38.4208 183.675 38.3585 183.66 38.2876C183.653 38.2521 183.652 38.2155 183.66 38.1799C183.667 38.1444 183.681 38.1107 183.701 38.0807C183.722 38.0508 183.748 38.0252 183.778 38.0056C183.809 37.9859 183.843 37.9726 183.879 37.9664C184.311 37.9104 184.751 37.9591 185.161 38.1085C185.571 38.2578 185.938 38.5035 186.233 38.8248C186.284 38.877 186.312 38.9466 186.312 39.019C186.312 39.0914 186.284 39.161 186.233 39.2133C186.201 39.2446 186.161 39.2673 186.117 39.2792Z" fill="#263238"/>
<path d="M184.102 48.0692C184.764 47.93 185.383 47.6335 185.906 47.2049C186.429 46.7762 186.841 46.2279 187.108 45.6064C187.121 45.5692 187.118 45.5283 187.101 45.4928C187.084 45.4573 187.054 45.4301 187.017 45.417C186.979 45.404 186.939 45.4063 186.903 45.4234C186.868 45.4405 186.84 45.471 186.827 45.5082C186.572 46.0799 186.186 46.5837 185.7 46.9788C185.214 47.374 184.642 47.6495 184.031 47.7831C184.012 47.7875 183.994 47.7955 183.978 47.8067C183.962 47.8179 183.949 47.8321 183.939 47.8485C183.928 47.8649 183.921 47.8832 183.918 47.9023C183.915 47.9214 183.915 47.941 183.92 47.9598C183.924 47.9787 183.932 47.9966 183.943 48.0124C183.955 48.0281 183.969 48.0416 183.985 48.0519C184.002 48.0621 184.02 48.0691 184.039 48.0723C184.058 48.0755 184.078 48.075 184.096 48.0707L184.102 48.0692Z" fill="#263238"/>
<path d="M176.98 40.2673C176.925 40.2857 176.865 40.2857 176.81 40.2673C176.742 40.2422 176.687 40.1919 176.655 40.1268C176.624 40.0617 176.618 39.9869 176.641 39.9181C176.772 39.502 177.002 39.1239 177.311 38.8157C177.62 38.5076 177.998 38.2785 178.415 38.148C178.485 38.1321 178.559 38.1439 178.621 38.181C178.683 38.2181 178.728 38.2776 178.747 38.3472C178.763 38.4174 178.751 38.4911 178.715 38.5529C178.678 38.6148 178.619 38.6602 178.549 38.6796C178.222 38.7888 177.925 38.9741 177.684 39.2204C177.442 39.4667 177.262 39.7668 177.159 40.0962C177.145 40.1366 177.121 40.173 177.09 40.2027C177.058 40.2323 177.021 40.2544 176.98 40.2673Z" fill="#263238"/>
<path d="M194.422 245.212C194.025 245.244 193.63 245.139 193.3 244.916C193.198 244.828 193.118 244.715 193.069 244.589C193.02 244.462 193.003 244.326 193.02 244.191C193.019 244.111 193.041 244.032 193.083 243.964C193.124 243.895 193.184 243.84 193.255 243.803C193.899 243.472 195.766 244.622 195.976 244.754C195.999 244.768 196.018 244.789 196.029 244.814C196.04 244.839 196.044 244.867 196.039 244.894C196.035 244.921 196.023 244.945 196.004 244.965C195.986 244.985 195.962 244.999 195.936 245.006C195.44 245.131 194.933 245.2 194.422 245.212ZM193.561 244.013C193.5 244.01 193.439 244.022 193.383 244.047C193.355 244.063 193.331 244.086 193.316 244.115C193.3 244.143 193.294 244.176 193.296 244.208C193.283 244.3 193.294 244.394 193.327 244.481C193.359 244.567 193.413 244.645 193.483 244.706C194.13 245.002 194.866 245.039 195.54 244.81C194.936 244.418 194.261 244.147 193.554 244.013H193.561Z" fill="#407BFF"/>
<path d="M195.899 245.01C195.876 245.01 195.853 245.004 195.833 244.993C195.234 244.668 194.074 243.397 194.196 242.749C194.216 242.648 194.271 242.557 194.35 242.491C194.43 242.426 194.53 242.389 194.633 242.389C194.737 242.376 194.843 242.385 194.944 242.416C195.044 242.446 195.138 242.497 195.218 242.566C195.891 243.117 196.03 244.789 196.034 244.859C196.036 244.883 196.031 244.908 196.02 244.93C196.009 244.952 195.993 244.971 195.972 244.985C195.951 245 195.925 245.009 195.899 245.01ZM194.729 242.661H194.666C194.488 242.683 194.473 242.765 194.466 242.801C194.393 243.183 195.132 244.142 195.728 244.595C195.689 243.932 195.45 243.297 195.044 242.772C194.955 242.699 194.844 242.66 194.729 242.661Z" fill="#407BFF"/>
<path d="M170.248 244.123L170.226 244.132C169.319 244.423 167.694 244.834 167 244.348C166.898 244.278 166.814 244.183 166.756 244.072C166.699 243.962 166.669 243.839 166.669 243.714C166.664 243.639 166.678 243.564 166.71 243.496C166.742 243.428 166.791 243.369 166.853 243.326C167.505 242.867 169.955 243.769 170.233 243.874C170.257 243.885 170.277 243.901 170.292 243.922C170.307 243.944 170.316 243.969 170.317 243.994C170.319 244.02 170.313 244.046 170.301 244.069C170.289 244.092 170.271 244.111 170.248 244.124V244.123ZM167.046 243.528L167.014 243.548C166.989 243.564 166.969 243.588 166.957 243.615C166.944 243.643 166.94 243.673 166.944 243.703C166.942 243.785 166.961 243.867 166.998 243.94C167.035 244.014 167.09 244.077 167.157 244.124C168.01 244.39 168.93 244.34 169.749 243.984C168.9 243.607 167.97 243.45 167.045 243.528H167.046Z" fill="#407BFF"/>
<path d="M170.247 244.122C170.214 244.139 170.175 244.142 170.14 244.131C169.411 243.898 167.896 242.808 167.924 242.146C167.931 241.991 168.02 241.787 168.39 241.707C168.524 241.677 168.662 241.675 168.797 241.701C168.931 241.726 169.059 241.779 169.172 241.856C169.767 242.424 170.167 243.165 170.317 243.974C170.322 243.997 170.32 244.022 170.313 244.044C170.306 244.067 170.292 244.088 170.275 244.104C170.266 244.111 170.257 244.117 170.247 244.122ZM168.296 242.033C168.202 242.083 168.199 242.142 168.198 242.164C168.178 242.563 169.224 243.435 169.983 243.78C169.843 243.134 169.508 242.546 169.022 242.097C168.939 242.04 168.846 242 168.747 241.981C168.648 241.962 168.546 241.964 168.447 241.986C168.395 241.995 168.344 242.01 168.296 242.033Z" fill="#407BFF"/>
<path d="M206.135 70.7968C205.988 73.0605 205.721 75.1685 205.445 77.3453C205.169 79.522 204.797 81.6553 204.389 83.8082C203.581 88.2055 202.389 92.5233 200.825 96.7117L200.136 98.3344L199.963 98.7398L199.919 98.8407L199.848 98.995L199.646 99.3947C199.379 99.8804 199.058 100.335 198.69 100.75C198.086 101.43 197.379 102.012 196.595 102.475C195.96 102.853 195.294 103.176 194.605 103.441C192.308 104.27 189.905 104.771 187.469 104.931C183.044 105.261 178.597 105.095 174.209 104.435L174.367 100.088L177.433 99.7412C178.462 99.6191 179.484 99.4606 180.501 99.3204C182.53 99.0216 184.539 98.6879 186.453 98.2432C188.224 97.8827 189.945 97.3121 191.581 96.5434C192.022 96.358 192.408 96.0631 192.703 95.6864C192.721 95.5868 192.5 96.023 192.76 95.3259L193.219 93.9851C194.342 90.1412 195.202 86.2251 195.791 82.264C196.121 80.2472 196.403 78.2121 196.675 76.1714C196.947 74.1307 197.172 72.0479 197.386 70.0913L206.135 70.7968Z" fill="#FFC3BD"/>
<path d="M206.64 66.5944C209.477 71.3533 207.061 86.31 207.061 86.31L192.194 83.5624C192.194 83.5624 191.389 75.0069 194.219 68.4233C197.292 61.2577 203.202 60.8286 206.64 66.5944Z" fill="#D2E4FF"/>
<path d="M170.205 113.539L162.315 76.8424C161.937 75.2754 161.059 73.8739 159.814 72.8494C158.569 71.8248 157.025 71.2326 155.415 71.1621H125.186C126.796 71.2323 128.341 71.8243 129.586 72.8489C130.831 73.8736 131.709 75.2752 132.087 76.8424L139.977 113.539C140.355 115.106 141.233 116.507 142.478 117.532C143.723 118.556 145.267 119.149 146.877 119.219H177.105C175.494 119.149 173.95 118.556 172.706 117.532C171.461 116.507 170.583 115.106 170.205 113.539Z" fill="#263238"/>
<path opacity="0.7" d="M170.205 113.539L162.315 76.8424C161.937 75.2754 161.059 73.8739 159.814 72.8494C158.569 71.8248 157.025 71.2326 155.415 71.1621H125.186C126.796 71.2323 128.341 71.8243 129.586 72.8489C130.831 73.8736 131.709 75.2752 132.087 76.8424L139.977 113.539C140.355 115.106 141.233 116.507 142.478 117.532C143.723 118.556 145.267 119.149 146.877 119.219H177.105C175.494 119.149 173.95 118.556 172.706 117.532C171.461 116.507 170.583 115.106 170.205 113.539Z" fill="#526070"/>
<path d="M125.184 71.1621H155.412C153.864 71.1911 152.381 71.7843 151.239 72.8304C150.098 73.8764 149.379 75.3031 149.216 76.8424L141.374 162.117C141.21 163.657 140.491 165.083 139.35 166.129C138.209 167.175 136.725 167.768 135.177 167.798H116.31C115.584 167.811 114.862 167.669 114.195 167.381C113.528 167.093 112.929 166.666 112.44 166.128C111.951 165.591 111.583 164.954 111.36 164.263C111.137 163.571 111.064 162.839 111.146 162.117L118.989 76.8424C119.152 75.3033 119.872 73.8768 121.013 72.8308C122.153 71.7848 123.637 71.1914 125.184 71.1621Z" fill="#00629D"/>
<path d="M130.015 162.115C129.932 162.837 130.005 163.569 130.228 164.261C130.451 164.952 130.82 165.588 131.309 166.126C131.798 166.664 132.396 167.091 133.063 167.379C133.731 167.667 134.452 167.809 135.179 167.796H104.951C104.224 167.809 103.503 167.667 102.835 167.38C102.168 167.092 101.57 166.665 101.081 166.127C100.592 165.589 100.223 164.953 100 164.261C99.777 163.569 99.7043 162.837 99.787 162.115H130.015Z" fill="#001C37"/>
<path opacity="0.7" d="M130.015 162.115C129.932 162.837 130.005 163.569 130.228 164.261C130.451 164.952 130.82 165.588 131.309 166.126C131.798 166.664 132.396 167.091 133.063 167.379C133.731 167.667 134.452 167.809 135.179 167.796H104.951C104.224 167.809 103.503 167.667 102.835 167.38C102.168 167.092 101.57 166.665 101.081 166.127C100.592 165.589 100.223 164.953 100 164.261C99.777 163.569 99.7043 162.837 99.787 162.115H130.015Z" fill="#526070"/>
<g opacity="0.5">
<path opacity="0.5" d="M143.978 80.7159H123.523C123.365 80.7181 123.209 80.6866 123.064 80.6236C122.919 80.5606 122.789 80.4675 122.683 80.3505C122.577 80.2336 122.497 80.0953 122.449 79.945C122.4 79.7947 122.384 79.6358 122.401 79.4789C122.438 79.144 122.595 78.8338 122.843 78.6062C123.091 78.3786 123.414 78.249 123.751 78.2418H144.203C144.361 78.2396 144.517 78.2711 144.662 78.3341C144.807 78.3971 144.937 78.4901 145.043 78.6071C145.149 78.7241 145.229 78.8624 145.277 79.0127C145.326 79.163 145.342 79.3219 145.325 79.4789C145.288 79.8132 145.132 80.1231 144.884 80.3506C144.636 80.5782 144.314 80.708 143.978 80.7159Z" fill="#D2E4FF"/>
<path opacity="0.5" d="M143.369 87.4083H122.914C122.756 87.4104 122.6 87.379 122.455 87.316C122.31 87.253 122.18 87.1599 122.074 87.0429C121.968 86.9259 121.888 86.7877 121.839 86.6374C121.791 86.4871 121.775 86.3282 121.792 86.1712C121.828 85.8364 121.985 85.5262 122.234 85.2985C122.482 85.0709 122.805 84.9414 123.141 84.9342H143.596C143.754 84.932 143.911 84.9635 144.055 85.0264C144.2 85.0894 144.33 85.1825 144.436 85.2995C144.542 85.4165 144.622 85.5547 144.671 85.705C144.72 85.8553 144.736 86.0142 144.718 86.1712C144.682 86.5062 144.525 86.8166 144.277 87.0443C144.028 87.2719 143.706 87.4013 143.369 87.4083Z" fill="#D2E4FF"/>
<path opacity="0.5" d="M137.745 94.0992H122.305C122.147 94.1014 121.99 94.0699 121.845 94.0069C121.7 93.9439 121.571 93.8508 121.465 93.7338C121.358 93.6169 121.278 93.4786 121.23 93.3283C121.181 93.178 121.165 93.0191 121.183 92.8621C121.219 92.5273 121.376 92.2171 121.624 91.9895C121.873 91.7618 122.195 91.6323 122.532 91.6251H137.973C138.131 91.6229 138.287 91.6544 138.432 91.7174C138.577 91.7804 138.707 91.8734 138.813 91.9904C138.919 92.1074 138.999 92.2457 139.047 92.396C139.096 92.5463 139.112 92.7052 139.095 92.8621C139.058 93.197 138.901 93.5072 138.653 93.7348C138.405 93.9625 138.082 94.092 137.745 94.0992Z" fill="#D2E4FF"/>
<path opacity="0.5" d="M126.935 100.789H121.699C121.541 100.791 121.385 100.759 121.24 100.696C121.095 100.633 120.965 100.54 120.859 100.423C120.753 100.306 120.673 100.168 120.624 100.018C120.576 99.8675 120.56 99.7086 120.577 99.5516C120.613 99.2169 120.77 98.9067 121.018 98.679C121.266 98.4514 121.588 98.3218 121.925 98.3146H127.162C127.32 98.3124 127.477 98.3439 127.622 98.4068C127.766 98.4698 127.896 98.5629 128.002 98.6799C128.108 98.7969 128.188 98.9351 128.237 99.0854C128.286 99.2357 128.302 99.3946 128.284 99.5516C128.248 99.8865 128.091 100.197 127.843 100.424C127.594 100.652 127.272 100.781 126.935 100.789Z" fill="#D2E4FF"/>
<path opacity="0.5" d="M141.542 107.481H121.082C120.924 107.483 120.768 107.451 120.623 107.388C120.478 107.325 120.348 107.232 120.242 107.115C120.136 106.998 120.056 106.86 120.007 106.71C119.959 106.559 119.942 106.4 119.96 106.244C119.996 105.909 120.153 105.598 120.402 105.371C120.65 105.143 120.973 105.014 121.309 105.006H141.764C141.922 105.004 142.079 105.036 142.223 105.099C142.368 105.162 142.498 105.255 142.604 105.372C142.71 105.489 142.79 105.627 142.839 105.777C142.887 105.928 142.904 106.087 142.886 106.244C142.85 106.577 142.694 106.887 142.447 107.114C142.199 107.342 141.878 107.472 141.542 107.481Z" fill="#D2E4FF"/>
<path opacity="0.5" d="M132.879 114.171H120.48C120.323 114.174 120.166 114.142 120.021 114.079C119.876 114.016 119.746 113.923 119.64 113.806C119.534 113.689 119.454 113.551 119.406 113.401C119.357 113.25 119.341 113.091 119.358 112.934C119.394 112.6 119.551 112.29 119.799 112.062C120.047 111.834 120.37 111.705 120.706 111.697H133.105C133.263 111.695 133.419 111.727 133.564 111.79C133.709 111.853 133.839 111.946 133.945 112.063C134.051 112.18 134.131 112.318 134.18 112.468C134.228 112.619 134.244 112.777 134.227 112.934C134.191 113.269 134.034 113.579 133.786 113.807C133.538 114.034 133.216 114.164 132.879 114.171Z" fill="#D2E4FF"/>
<path opacity="0.5" d="M140.326 120.862H119.871C119.713 120.865 119.557 120.833 119.412 120.77C119.267 120.707 119.137 120.614 119.031 120.497C118.925 120.38 118.845 120.242 118.796 120.092C118.748 119.941 118.732 119.782 118.749 119.625C118.785 119.29 118.942 118.98 119.191 118.753C119.439 118.525 119.762 118.396 120.098 118.388H140.554C140.712 118.386 140.869 118.418 141.014 118.481C141.159 118.544 141.288 118.637 141.395 118.754C141.501 118.871 141.581 119.009 141.629 119.159C141.678 119.309 141.694 119.468 141.677 119.625C141.64 119.96 141.483 120.271 141.234 120.498C140.986 120.726 140.663 120.855 140.326 120.862Z" fill="#D2E4FF"/>
<path opacity="0.5" d="M134.704 127.553H119.264C119.106 127.555 118.949 127.524 118.804 127.461C118.659 127.398 118.53 127.305 118.424 127.188C118.317 127.071 118.237 126.933 118.189 126.782C118.14 126.632 118.124 126.473 118.142 126.316C118.178 125.981 118.335 125.671 118.583 125.444C118.832 125.216 119.154 125.086 119.491 125.079H134.932C135.089 125.077 135.246 125.108 135.391 125.171C135.536 125.234 135.666 125.328 135.772 125.445C135.878 125.562 135.958 125.7 136.006 125.85C136.055 126 136.071 126.159 136.054 126.316C136.017 126.651 135.86 126.961 135.612 127.189C135.364 127.417 135.041 127.546 134.704 127.553Z" fill="#D2E4FF"/>
<path opacity="0.5" d="M123.892 134.244H118.652C118.494 134.246 118.338 134.215 118.193 134.152C118.048 134.089 117.918 133.996 117.812 133.879C117.706 133.762 117.626 133.624 117.577 133.473C117.529 133.323 117.513 133.164 117.53 133.007C117.567 132.672 117.724 132.362 117.972 132.135C118.22 131.907 118.543 131.777 118.88 131.77H124.122C124.28 131.768 124.437 131.799 124.582 131.862C124.727 131.925 124.856 132.018 124.962 132.135C125.069 132.252 125.149 132.391 125.197 132.541C125.246 132.691 125.262 132.85 125.244 133.007C125.208 133.343 125.051 133.653 124.802 133.881C124.553 134.108 124.23 134.238 123.892 134.244Z" fill="#D2E4FF"/>
<path opacity="0.5" d="M138.5 140.937H118.045C117.887 140.939 117.73 140.907 117.586 140.844C117.441 140.781 117.311 140.688 117.205 140.571C117.099 140.454 117.019 140.316 116.97 140.166C116.921 140.015 116.905 139.857 116.923 139.7C116.959 139.365 117.116 139.055 117.364 138.827C117.613 138.599 117.935 138.47 118.272 138.463H138.727C138.885 138.46 139.041 138.492 139.186 138.555C139.331 138.618 139.461 138.711 139.567 138.828C139.673 138.945 139.753 139.083 139.802 139.233C139.85 139.384 139.866 139.543 139.849 139.7C139.813 140.034 139.656 140.345 139.407 140.572C139.159 140.8 138.836 140.929 138.5 140.937Z" fill="#D2E4FF"/>
<path opacity="0.5" d="M129.838 147.627H117.439C117.282 147.629 117.125 147.598 116.98 147.535C116.835 147.472 116.705 147.379 116.599 147.262C116.493 147.145 116.413 147.006 116.365 146.856C116.316 146.706 116.3 146.547 116.317 146.39C116.353 146.055 116.51 145.745 116.759 145.517C117.007 145.289 117.33 145.16 117.667 145.153H130.064C130.222 145.151 130.378 145.182 130.523 145.245C130.668 145.308 130.798 145.401 130.904 145.518C131.01 145.635 131.09 145.774 131.139 145.924C131.187 146.074 131.203 146.233 131.186 146.39C131.15 146.725 130.993 147.035 130.745 147.262C130.497 147.49 130.175 147.619 129.838 147.627Z" fill="#D2E4FF"/>
<path opacity="0.5" d="M137.283 154.318H116.828C116.67 154.32 116.514 154.289 116.369 154.226C116.224 154.163 116.094 154.07 115.988 153.953C115.882 153.836 115.802 153.697 115.753 153.547C115.705 153.397 115.689 153.238 115.706 153.081C115.742 152.746 115.899 152.436 116.148 152.208C116.396 151.981 116.719 151.851 117.055 151.844H137.507C137.665 151.842 137.822 151.873 137.967 151.936C138.112 151.999 138.241 152.092 138.347 152.209C138.454 152.326 138.534 152.464 138.582 152.615C138.631 152.765 138.647 152.924 138.629 153.081C138.593 153.415 138.436 153.725 138.189 153.953C137.941 154.18 137.619 154.31 137.283 154.318Z" fill="#D2E4FF"/>
</g>
<path d="M176.151 100.561L171.71 96.7026L169.629 103.805C169.629 103.805 174.139 106.251 175.702 104.006L176.151 100.561Z" fill="#FFC3BD"/>
<path d="M166.87 96.4248L165.426 102.377L169.622 103.808L171.704 96.7039L166.87 96.4248Z" fill="#FFC3BD"/>
</svg>
